<?xml version="1.0" encoding="utf-8"?>
<!-- Generator: Adobe Illustrator 26.1.0, SVG Export Plug-In . SVG Version: 6.00 Build 0)  -->
<svg version="1.1" id="Layer_1" xmlns="http://www.w3.org/2000/svg" xmlns:xlink="http://www.w3.org/1999/xlink" x="0px" y="0px"
	 viewBox="0 0 500 500" style="enable-background:new 0 0 500 500;" xml:space="preserve">
<style type="text/css">
	.st0{fill:#EBEBEB;}
	.st1{fill:#F5F5F5;}
	.st2{fill:#E0E0E0;}
	.st3{fill:#FFFFFF;}
	.st4{fill:#FAFAFA;}
	.st5{fill:#263238;}
	.st6{fill:#455A64;}
	.st7{fill:#FF6A27;}
	.st8{opacity:0.2;}
	.st9{opacity:0.3;}
	.st10{fill:#FFBE9D;}
	.st11{fill:#FFE6E6;stroke:#000000;stroke-miterlimit:10;}
</style>
<g id="freepik--background-complete--inject-25">
	<path class="st0" d="M413.4,92.6c-1.2-4.9-3.9-9.4-7.8-12.8c-3.6-3.4-8.2-5.6-13.2-6.3c-8.7-1-16.9,4-20.1,12.1
		c-1.7-2.3-3.8-4.2-6.3-5.6c-4.7-2.5-10.2-3-15.3-1.3c-4.7,1.7-8.7,4.8-11.6,8.9c-3.1,4.1-4.8,9-4.9,14.1
		c-0.1,6.5,1.9,12.8,5.7,18.1c4,5.3,10.1,9.4,16.1,12.2c10.2,4.8,23.6,10.6,23.6,10.6s9.8-9.1,18.8-15.9c5.3-4,10.4-9.2,13.2-15.3
		C414.2,105.6,414.8,98.9,413.4,92.6z"/>
	<path class="st0" d="M457.7,52.4c0.1-3-0.7-5.9-2.4-8.4c-1.5-2.5-3.8-4.5-6.5-5.7c-4.7-1.9-10.2-0.5-13.3,3.6
		c-1.7-4.6-6.2-7.6-11.1-7.4c-2.9,0.2-5.7,1.3-8,3.2c-2.4,1.8-4.2,4.3-5.1,7.2c-1.1,3.6-1,7.5,0.3,11.1c1.6,3.7,4.1,7,7.2,9.5
		c5,4.3,11.6,9.8,11.6,9.8s7-3.6,13.2-6c3.8-1.3,7.2-3.6,10-6.5C456.1,59.9,457.5,56.2,457.7,52.4z"/>
	<path class="st0" d="M444,155c-0.5-2.1-1.7-4.1-3.3-5.5c-1.6-1.5-3.5-2.5-5.7-2.8c-3.7-0.4-7.3,1.7-8.7,5.1
		c-2.1-2.9-5.9-4.2-9.3-3.1c-2,0.7-3.8,2.1-5,3.8c-1.3,1.7-2.1,3.8-2.2,6c-0.1,2.8,0.8,5.5,2.4,7.8c1.8,2.3,4.2,4.1,6.9,5.3
		c4.4,2.1,10.1,4.7,10.1,4.7s4.2-3.9,8.1-6.8c2.4-1.7,4.4-3.9,5.7-6.5C444.4,160.5,444.6,157.7,444,155z"/>
	<rect x="37.1" y="359.7" class="st1" width="162.3" height="74.8"/>
	<path class="st2" d="M195.6,431H40.8v-67.4h154.7V431H195.6z M41.9,430h152.7v-65.4H41.8L41.9,430z"/>
	<rect x="199.4" y="359.7" class="st2" width="39.6" height="74.8"/>
	<path class="st2" d="M41.3,384.5H195c0.1,0,0.2-0.1,0.2-0.3c0-0.1-0.1-0.1-0.2-0.2H41.3c-0.1,0-0.2,0.1-0.2,0.3
		C41.2,384.5,41.3,384.5,41.3,384.5z"/>
	<path class="st2" d="M118.7,384.3c0.4-6.8,0.5-13.6,0.1-20.3c0-0.1-0.1-0.2-0.2-0.2s-0.2,0.1-0.2,0.2c-0.4,6.8-0.4,13.6,0.1,20.3
		c0,0.1,0.1,0.1,0.2,0.1S118.7,384.4,118.7,384.3z"/>
	<path class="st2" d="M160.1,374.2c0,1.2-0.9,2.1-2.1,2.1c-1.2,0-2.1-0.9-2.1-2.1s0.9-2.1,2.1-2.1
		C159.1,372.1,160.1,373,160.1,374.2L160.1,374.2z"/>
	<path class="st2" d="M79.4,374.2c0,1.2-0.9,2.1-2.1,2.1s-2.1-0.9-2.1-2.1s0.9-2.1,2.1-2.1S79.4,373,79.4,374.2L79.4,374.2z"/>
	<path class="st2" d="M120.3,397.4c0,1.2-0.9,2.1-2.1,2.1s-2.1-0.9-2.1-2.1s0.9-2.1,2.1-2.1l0,0
		C119.3,395.3,120.3,396.2,120.3,397.4z"/>
	<polygon class="st2" points="56.5,434.6 48.2,481.6 52.9,481.6 68.3,434.6 	"/>
	<polygon class="st2" points="187.9,434.6 194.9,481.6 190.2,481.6 176.2,434.6 	"/>
	<polygon class="st2" points="219.3,434.6 227.2,481.6 222.5,481.6 207.6,434.6 	"/>
	<path class="st2" d="M120.2,418.5c0,1.2-0.9,2.1-2.1,2.1s-2.1-0.9-2.1-2.1s0.9-2.1,2.1-2.1l0,0
		C119.2,416.5,120.1,417.4,120.2,418.5z"/>
	<path class="st2" d="M41.3,407.7H195c0.1,0,0.2-0.1,0.2-0.3c0-0.1-0.1-0.1-0.2-0.2H41.3c-0.1,0-0.2,0.1-0.2,0.3
		C41.2,407.6,41.3,407.7,41.3,407.7z"/>
	
		<rect x="101.3" y="324.5" transform="matrix(1 -5.235945e-03 5.235945e-03 1 -1.7235 0.6635)" class="st2" width="49.1" height="10"/>
	
		<rect x="101.6" y="344.1" transform="matrix(1 -5.235945e-03 5.235945e-03 1 -1.8405 0.68)" class="st1" width="54.7" height="15.5"/>
	<path class="st2" d="M145.8,359.4c-0.3-2.6-0.4-5.2-0.3-7.8c-0.1-2.6,0-5.2,0.3-7.8c0.3,2.6,0.3,5.2,0.3,7.8
		C146.1,354.2,146,356.8,145.8,359.4z"/>
	<path class="st2" d="M148.1,359.4c-0.3-2.6-0.4-5.2-0.3-7.8c-0.1-2.6,0-5.2,0.3-7.8c0.3,2.6,0.3,5.2,0.3,7.8
		C148.4,354.2,148.3,356.8,148.1,359.4z"/>
	<path class="st2" d="M109.9,359.4c-0.3-2.6-0.3-5.2-0.3-7.8c-0.1-2.6,0-5.2,0.3-7.8c0.3,2.6,0.4,5.2,0.3,7.8
		C110.2,354.2,110.1,356.8,109.9,359.4z"/>
	<path class="st2" d="M112.2,359.4c-0.3-2.6-0.4-5.2-0.3-7.8c-0.1-2.6,0-5.2,0.3-7.8c0.3,2.6,0.4,5.2,0.3,7.8
		C112.5,354.2,112.4,356.8,112.2,359.4z"/>
	<path class="st2" d="M117.2,351.9c0-0.1,5.5-0.3,12.3-0.3s12.3,0.1,12.3,0.3s-5.5,0.3-12.3,0.3S117.2,352.1,117.2,351.9z"/>
	
		<rect x="109.3" y="334.1" transform="matrix(1 -5.235945e-03 5.235945e-03 1 -1.7736 0.7537)" class="st0" width="67.5" height="10"/>
	<path class="st2" d="M167.2,342.7c-1.8,0-3.2-1.4-3.3-3.2c0-1.8,1.4-3.2,3.2-3.3c1.8,0,3.2,1.4,3.3,3.2l0,0
		C170.4,341.2,169,342.7,167.2,342.7L167.2,342.7z"/>
	<rect x="113.3" y="338.5" class="st2" width="45.2" height="2"/>
	<rect x="52.5" y="37.6" class="st2" width="96.9" height="140.5"/>
	<rect x="47.6" y="37.6" class="st1" width="96.9" height="140.5"/>
	<rect x="59.7" y="52.8" class="st3" width="72.9" height="110.1"/>
	<path class="st2" d="M132.5,162.9c0,0,0-0.2,0-0.5s0-0.9,0-1.6c0-1.4,0-3.4,0-6c0-5.3,0-13-0.1-22.7c0-19.4-0.1-46.9-0.1-79.3
		l0.2,0.2H59.7l0,0l0.3-0.3c0,41.5,0,79.8-0.1,110.1l-0.2-0.2l53,0.1h14.7h3.9C132.1,162.8,132.6,162.8,132.5,162.9l-1.2-0.1h-3.8
		l-14.6,0.1L59.7,163h-0.2v-0.2c0-30.3,0-68.6,0-110.1v-0.3h0.3h72.8h0.2v0.2c0,32.4-0.1,60-0.1,79.4c0,9.7,0,17.4-0.1,22.6
		c0,2.6,0,4.6,0,6c0,0.7,0,1.2,0,1.5S132.5,162.9,132.5,162.9z"/>
	<path class="st2" d="M144.8,37.6c-0.5,0.9-1.1,1.7-1.7,2.5c-1.1,1.5-2.7,3.5-4.6,5.8s-3.6,4.2-4.8,5.6c-0.6,0.8-1.4,1.5-2.1,2.2
		c0.6-0.9,1.2-1.7,1.9-2.4l4.7-5.7c1.8-2.1,3.4-4.1,4.7-5.7C143.4,39,144.1,38.3,144.8,37.6z"/>
	<path class="st3" d="M132.9,162.5c3.6,5.8,7.9,11.1,12.7,15.9"/>
	<path class="st2" d="M145.6,178.4c-0.8-0.6-1.5-1.3-2.2-2c-3.4-3.4-6.4-7.2-9-11.3c-0.6-0.8-1.1-1.7-1.5-2.6
		c0.7,0.8,1.3,1.6,1.8,2.4c1.1,1.5,2.6,3.6,4.3,5.8s3.4,4.1,4.6,5.5C144.4,176.9,145,177.6,145.6,178.4z"/>
	<path class="st3" d="M47.6,178l12.7-15.7"/>
	<path class="st2" d="M60.3,162.3c-1.9,2.8-4,5.4-6.1,8c-2,2.7-4.2,5.2-6.6,7.7c1.9-2.8,4-5.4,6.2-8C55.8,167.3,58,164.8,60.3,162.3
		z"/>
	<path class="st2" d="M47.6,37.6c2.2,2.3,4.2,4.8,6.2,7.4c2.1,2.5,4,5,5.8,7.7c-2.2-2.3-4.2-4.8-6.2-7.4
		C51.3,42.8,49.4,40.2,47.6,37.6z"/>
	<rect x="85.4" y="75.1" class="st2" width="24.4" height="69.3"/>
	<rect x="371.4" y="195.9" class="st2" width="70.4" height="73.4"/>
	<rect x="366.6" y="195.9" class="st4" width="70.4" height="73.4"/>
	<path class="st2" d="M437,269.3h-70.4v-73.4H437V269.3z M366.6,269.2H437v-73.3h-70.4V269.2z"/>
	<rect x="376.1" y="205.8" class="st3" width="51.5" height="53.7"/>
	<path class="st2" d="M376.1,259.8c-0.4,0.5-0.8,1-1.3,1.5c-0.8,0.9-2,2-3.3,3.3s-2.5,2.4-3.4,3.2c-0.4,0.5-0.9,0.9-1.5,1.2
		c0.4-0.5,0.8-1,1.3-1.5c0.8-0.9,2-2,3.3-3.3s2.5-2.4,3.4-3.2C375,260.5,375.5,260.1,376.1,259.8z"/>
	<path class="st2" d="M427.6,259.6c0.5,0.4,1,0.8,1.5,1.3c0.9,0.8,2,2,3.3,3.3s2.4,2.5,3.2,3.4c0.5,0.4,0.9,0.9,1.2,1.5
		c-0.5-0.4-1-0.8-1.5-1.3c-0.9-0.8-2-2-3.3-3.3s-2.4-2.5-3.2-3.4C428.3,260.7,427.9,260.2,427.6,259.6z"/>
	<path class="st2" d="M427.4,205.9c0.4-0.5,0.8-1,1.3-1.5c0.8-0.9,2-2,3.3-3.3s2.5-2.4,3.4-3.2c0.4-0.5,0.9-0.9,1.5-1.2
		c-0.4,0.5-0.8,1-1.3,1.5c-0.8,0.9-2,2-3.3,3.3s-2.5,2.4-3.4,3.2C428.5,205.1,428,205.5,427.4,205.9z"/>
	<path class="st2" d="M376,206c-0.5-0.4-1-0.8-1.5-1.3c-0.9-0.8-2-2-3.3-3.3s-2.4-2.5-3.2-3.4c-0.5-0.4-0.9-0.9-1.2-1.5
		c0.5,0.4,1,0.8,1.5,1.3c0.9,0.8,2,2,3.3,3.3s2.4,2.5,3.2,3.4C375.2,205,375.6,205.5,376,206z"/>
	<path class="st2" d="M427.4,259.4c0-0.1,0-0.2,0-0.3c0-0.2,0-0.4,0-0.8c0-0.7,0-1.6,0-2.9c0-2.6,0-6.2,0-10.9
		c0-9.4-0.1-22.8-0.1-38.8l0.2,0.2h-51.3l0,0l0.2-0.2c0,19.7,0,38.1,0,53.7l-0.2-0.2l37.2,0.1h10.4h2.8l0,0h-2.7h-10.4l-37.3,0.1
		H376v-0.2c0-15.5,0-34,0-53.6v-0.2h0.2h51.3h0.2v0.2c0,16.1-0.1,29.5-0.1,38.9c0,4.7,0,8.4-0.1,10.9c0,1.2,0,2.2,0,2.9
		c0,0.3,0,0.5,0,0.7S427.5,259.3,427.4,259.4z"/>
	<rect x="393.2" y="224" class="st0" width="17.2" height="17.2"/>
</g>
<g id="freepik--Plant--inject-25">
	<rect x="356.3" y="423.8" class="st5" width="68.8" height="9.5"/>
	<path class="st5" d="M356.2,423.6h69v9.7h-69V423.6z M425,423.9h-68.6v9.2H425V423.9z"/>
	<polygon class="st5" points="418.7,430.1 408.8,478.9 372.2,478.9 362.6,433.2 	"/>
	<polygon class="st6" points="418.7,474.3 413.5,481.6 368.9,481.6 362.6,474.3 	"/>
	<path class="st5" d="M393.3,431.5c0.1,0,0.3-22.6,0.4-50.6s0-50.6-0.1-50.6s-0.3,22.6-0.4,50.6S393.2,431.5,393.3,431.5z"/>
	<path class="st5" d="M378,374.8c0,0.2,0.1,0.4,0.2,0.5l0.6,1.5l0.5,1.1c0.1,0.4,0.3,0.8,0.5,1.3s0.3,1,0.5,1.5s0.3,1.1,0.5,1.7
		c0.8,2.8,1.5,5.6,1.9,8.4c0.5,3.5,0.9,7,1.1,10.5c0.3,6.4,0.1,12.8-0.5,19.2c-0.2,2.5-0.5,4.5-0.6,5.8c-0.1,0.6-0.1,1.2-0.2,1.6
		c0,0.2,0,0.4,0,0.5c0.1-0.2,0.1-0.4,0.1-0.5l0.3-1.6c0.2-1.4,0.5-3.3,0.8-5.8c0.7-6.4,1-12.9,0.7-19.3c-0.2-3.5-0.5-7.1-1.1-10.6
		c-0.5-2.9-1.1-5.7-2-8.5c-0.2-0.6-0.4-1.1-0.5-1.7s-0.4-1-0.6-1.5l-0.5-1.3c-0.2-0.4-0.4-0.7-0.5-1c-0.3-0.6-0.5-1-0.7-1.4
		C378.2,375.1,378.1,375,378,374.8z"/>
	<path class="st5" d="M379.7,356.5c0.1,0.3,0.1,0.5,0.2,0.8l0.7,2.1l0.5,1.5c0.2,0.6,0.4,1.2,0.6,1.8c0.4,1.3,0.9,2.8,1.3,4.5
		l0.7,2.6c0.2,0.9,0.4,1.9,0.6,2.9c0.5,2,0.8,4.1,1.3,6.4c0.8,4.5,1.4,9.5,1.9,14.7s0.6,10.3,0.7,14.8s0,8.7-0.2,12.1
		c-0.1,1.7-0.2,3.3-0.3,4.6s-0.2,2.5-0.2,3.5s-0.1,1.7-0.2,2.2c0,0.3,0,0.5,0,0.8c0.1-0.3,0.1-0.5,0.1-0.8c0.1-0.5,0.1-1.3,0.3-2.2
		s0.2-2.1,0.3-3.5s0.2-2.9,0.3-4.6c0.2-3.5,0.3-7.6,0.3-12.1s-0.2-9.6-0.7-14.9s-1.1-10.2-1.9-14.7c-0.5-2.2-0.8-4.4-1.3-6.4
		c-0.2-1-0.5-2-0.7-2.9l-0.7-2.6c-0.4-1.7-0.9-3.2-1.4-4.5c-0.2-0.6-0.4-1.2-0.6-1.8s-0.4-1-0.6-1.5l-0.8-2.1
		C380,357,379.9,356.8,379.7,356.5z"/>
	<path class="st5" d="M397.6,435.5c0-0.1,0-0.2,0-0.3c0-0.2,0-0.5,0.1-0.8c0-0.7,0.1-1.7,0.2-3c0.2-2.6,0.4-6.4,0.7-11
		c0.6-9.3,1.5-22.2,3-36.3c0.8-7.1,1.7-13.8,2.7-19.9c0.5-3,1-5.9,1.5-8.6s1-5.2,1.5-7.5s1-4.3,1.4-6.1s0.8-3.4,1.1-4.6
		s0.5-2.2,0.7-2.9c0.1-0.3,0.1-0.6,0.2-0.8c0-0.1,0-0.2,0-0.3c0,0.1-0.1,0.2-0.1,0.2c0,0.2-0.1,0.4-0.2,0.8
		c-0.2,0.7-0.5,1.7-0.8,2.9s-0.8,2.8-1.2,4.6s-1,3.9-1.4,6.1s-1,4.8-1.5,7.5s-1,5.6-1.5,8.6c-1,6.1-1.9,12.8-2.7,19.9
		c-1.6,14.2-2.4,27-2.9,36.4c-0.3,4.7-0.4,8.4-0.5,11c0,1.3-0.1,2.3-0.1,3v0.8C397.6,435.3,397.6,435.4,397.6,435.5z"/>
	<path class="st7" d="M393.9,341.2c0.3-3.2,3.5-5.6,6.8-5.7c3.3,0.1,6.3,1.8,8.2,4.5c1.9,2.6,3.2,5.6,3.9,8.8
		c2.2,7.5,3.4,15.5,2.4,23.3s-4.1,15.5-9.7,21c-0.9,0.9-2.1,1.8-3.3,1.5c-0.7-0.2-1.3-0.6-1.8-1.1c-11.1-10.2-17.3-24.6-16.9-39.6
		c0.1-3,0.5-6.1,2.1-8.5S391.1,340.3,393.9,341.2"/>
	<path class="st7" d="M417.9,315.6l4.5,8.2c0.1,0.2,0.2,0.4,0.5,0.4s0.4-0.2,0.5-0.4l12-18.4l-2.8-1.6L417.9,315.6z"/>
	<g class="st8">
		<path d="M417.9,315.6l4.5,8.2c0.1,0.2,0.2,0.4,0.5,0.4s0.4-0.2,0.5-0.4l12-18.4l-2.8-1.6L417.9,315.6z"/>
	</g>
	<path class="st7" d="M393.6,330.4l40.9-24.1c0.4-0.2,0.8-0.6,1-1c0.2-0.6-0.3-1.2-0.7-1.6c-5.7-5.9-13.7-9-21.9-8.6
		c-8.2,0.6-15.6,5.2-19.8,12.3C389.2,314.3,389.1,323.7,393.6,330.4"/>
	<path class="st5" d="M428.6,298.5c-0.2,0-0.4-0.1-0.5-0.1c-0.4,0-0.9-0.1-1.5-0.1c-1.9,0-3.8,0.1-5.7,0.5c-2.8,0.5-5.5,1.3-8.1,2.5
		c-6.4,2.8-11.7,7.6-15.1,13.7c-1.4,2.5-2.5,5.1-3.2,7.8c-0.5,1.8-0.8,3.7-1,5.6c-0.1,0.7,0,0.8-0.1,1.2c0,0.3,0.1,0.6,0.3,0.9
		c-0.1-0.7-0.1-1.4-0.1-2.1c0.2-1.9,0.6-3.7,1.2-5.5c3.5-12.3,13.7-21.5,26.2-23.7c1.9-0.3,3.7-0.5,5.6-0.6
		C427.9,298.5,428.6,298.6,428.6,298.5z"/>
	<path class="st5" d="M399.1,313.7c0.6,0.4,1.3,0.7,2.1,0.9c1.3,0.5,3.1,1.2,5.2,1.8s3.9,1.2,5.3,1.5c0.7,0.2,1.5,0.4,2.2,0.4
		c-0.7-0.3-1.4-0.6-2.1-0.8l-5.2-1.6l-5.2-1.7C400.6,314,399.9,313.8,399.1,313.7z"/>
	<path class="st5" d="M405.6,296.4c-0.4,1.5-0.5,3-0.5,4.6c-0.1,1.5,0,3.1,0.3,4.6c0.2-1.5,0.3-3,0.2-4.6
		C405.7,299.5,405.7,297.9,405.6,296.4z"/>
	<path class="st5" d="M434.9,305.8c-1-0.4-2-0.7-3-1c-1.9-0.6-4.5-1.3-7.3-2s-5.5-1.2-7.4-1.6c-1-0.2-2.1-0.4-3.1-0.4
		c1,0.3,2,0.6,3.1,0.8c1.9,0.4,4.5,1,7.4,1.7s5.5,1.4,7.4,1.9C432.8,305.4,433.8,305.6,434.9,305.8z"/>
	<path class="st7" d="M410.8,334.3c3.5-2.7,7.2-3.2,11.6-3c4.4,0.3,8.7,1.4,12.8,3.3c6.9,3,13.4,7.5,17.5,13.8s5.5,14.6,2.5,21.5
		c-0.2,0.7-0.7,1.3-1.4,1.7c-0.8,0.2-1.6,0.2-2.3-0.2c-7.9-2.6-15.8-5.1-23-9.1s-13.8-9.6-17.7-16.9c-1-1.7-1.6-3.6-1.9-5.6
		C408.8,337.8,409.4,335.8,410.8,334.3"/>
	<path class="st5" d="M410.8,333.5c0.2,0.1,0.4,0.2,0.6,0.2l1.6,0.6l1.2,0.4c0.4,0.1,0.9,0.4,1.4,0.5c1,0.4,2.1,0.8,3.4,1.4l1.9,0.9
		c0.7,0.3,1.3,0.7,2,1c1.4,0.7,2.9,1.6,4.4,2.5c6.6,4.1,12.4,9.2,17.3,15.2c1.1,1.4,2.2,2.7,3,4c0.4,0.6,0.9,1.3,1.3,1.9l1.2,1.9
		c0.7,1.1,1.3,2.2,1.8,3.2c0.2,0.5,0.5,0.9,0.7,1.3l0.5,1.1c0.3,0.6,0.6,1.1,0.8,1.6c0.1,0.2,0.2,0.4,0.3,0.5
		c-0.1-0.2-0.1-0.4-0.2-0.6l-0.7-1.6c-0.2-0.4-0.3-0.7-0.5-1.1s-0.4-0.9-0.7-1.3c-0.5-1-1-2.1-1.8-3.2l-1.1-1.8
		c-0.4-0.6-0.8-1.2-1.3-1.9c-0.9-1.3-1.9-2.7-3-4.1c-2.4-3-5.1-5.8-8-8.4c-2.9-2.5-6.1-4.9-9.4-6.9c-1.5-0.9-3-1.8-4.5-2.5
		c-0.7-0.4-1.4-0.7-2.1-1l-2-0.9c-1.2-0.6-2.4-1-3.4-1.3c-0.5-0.2-1-0.4-1.4-0.5l-1.2-0.4l-1.7-0.5
		C411.2,333.6,411,333.5,410.8,333.5z"/>
	<path class="st5" d="M438.3,348.4c2.8,1.1,5.7,2,8.6,2.8c2.9,0.9,5.8,1.7,8.7,2.3c-2.8-1.1-5.7-2-8.6-2.8
		C444.1,349.7,441.2,349,438.3,348.4z"/>
	<path class="st5" d="M438.6,367.2c0.1-0.9,0.2-1.8,0.2-2.7c0-1.6,0-3.9,0-6.4s-0.2-4.8-0.3-6.4c0-0.9-0.1-1.8-0.3-2.6
		c-0.1,0.9-0.1,1.8,0,2.7c0.1,1.8,0.1,4,0.2,6.4s0.1,4.6,0.2,6.4C438.4,365.5,438.5,366.4,438.6,367.2z"/>
	<path class="st5" d="M422.4,359c0.1,0,0.6-4.6,1-10.4s0.6-10.4,0.5-10.4s-0.6,4.6-1,10.4S422.3,359,422.4,359z"/>
	<path class="st5" d="M442.6,337.8c-0.9-0.1-1.8-0.1-2.8-0.1c-1.7,0-4,0.1-6.6,0.1s-4.9,0.2-6.6,0.3c-0.9,0-1.8,0.1-2.7,0.3
		c0.9,0.1,1.8,0.1,2.7,0.1c1.7,0,4-0.1,6.6-0.1s4.9-0.2,6.6-0.3C440.8,338.1,441.7,338,442.6,337.8z"/>
	<path class="st5" d="M403.7,394.2c0-0.2,0.1-0.4,0.1-0.5c0-0.4,0-0.9,0.1-1.6c0.1-1.4,0.1-3.4,0-5.8s-0.2-5.4-0.5-8.6
		s-0.8-6.8-1.4-10.4s-1.5-7.1-2.3-10.3s-1.7-5.9-2.5-8.2s-1.5-4.2-2.1-5.4l-0.6-1.5c-0.1-0.2-0.1-0.3-0.2-0.5c0,0.2,0.1,0.4,0.2,0.5
		c0.1,0.4,0.3,0.9,0.5,1.5c0.5,1.3,1.1,3.1,1.9,5.5s1.6,5.1,2.4,8.2s1.6,6.6,2.3,10.2s1.1,7.2,1.5,10.4s0.5,6.1,0.6,8.5
		s0.1,4.4,0.1,5.8c0,0.6,0,1.2,0,1.6C403.7,393.8,403.7,394,403.7,394.2z"/>
	<path class="st5" d="M401.6,367.4c0.5,0.7,1,1.3,1.6,1.8c1.1,1.1,2.6,2.5,4.3,4s3.3,2.8,4.5,3.7c0.6,0.5,1.3,1,2,1.4
		c-0.5-0.6-1.1-1.2-1.8-1.6l-4.4-3.8l-4.4-3.9C402.9,368.4,402.2,367.8,401.6,367.4z"/>
	<path class="st5" d="M388.6,377.8c0.6-0.8,1.2-1.6,1.7-2.4l4-5.9l4.1-5.9c0.6-0.8,1.2-1.6,1.6-2.5c-0.7,0.7-1.4,1.5-1.9,2.3
		c-1.1,1.4-2.6,3.5-4.2,5.8s-3,4.4-3.9,6C389.5,376.1,389,376.9,388.6,377.8z"/>
	<path class="st5" d="M395.4,345c-0.1,0.1,4.2,3,9.6,6.5s9.8,6.2,9.9,6.1s-4.2-3-9.6-6.5S395.5,344.9,395.4,345z"/>
	<path class="st5" d="M383.3,358.1c2.3-1.9,4.4-3.9,6.5-6c2.2-2,4.2-4.1,6.2-6.4c-2.3,1.9-4.5,3.9-6.5,6
		C387.3,353.7,385.2,355.9,383.3,358.1z"/>
	<path class="st7" d="M380.2,357.9l-3.7-0.3c-2.6-0.2-5.2-1-7.5-2.3c-1.1-0.7-2.3-1.2-3.5-1.8c-4.6-1.8-9.7-1.5-14.6-1.8
		c-8-0.4-15.9-2.4-23.2-5.9c-0.4-0.2-0.8-0.5-1-0.9c-0.8-1.4,0.6-2.6,1.9-3.4c6.2-3.8,12.5-7.7,19.6-9.6s15.1-1.6,21.1,2.6
		C376.5,339.4,379,349.4,380.2,357.9"/>
	<path class="st5" d="M326.8,344.5c0.2-0.1,0.4-0.2,0.6-0.3l1.8-0.9c1.5-0.8,3.7-2,6.5-3.3c3.2-1.6,6.6-2.9,10-3.9
		c4.2-1.2,8.6-1.6,13-1.1s8.5,2.3,11.8,5.1c2.6,2.4,4.7,5.4,6.2,8.6c1,2.2,1.9,4.4,2.7,6.7c0.3,0.8,0.5,1.4,0.7,1.9
		c0.1,0.2,0.2,0.4,0.2,0.6c0-0.2-0.1-0.5-0.2-0.7c-0.1-0.5-0.3-1.1-0.6-1.9c-0.7-2.3-1.6-4.6-2.5-6.8c-1.4-3.3-3.5-6.4-6.2-8.8
		c-3.4-2.9-7.6-4.7-12.1-5.2c-4.4-0.5-8.9-0.1-13.1,1.1c-3.4,1-6.8,2.4-10,4c-2.8,1.4-4.9,2.6-6.4,3.5l-1.7,1
		C327.2,344.2,327,344.3,326.8,344.5z"/>
	<path class="st5" d="M335.6,349.2c0.1,0.1,4.9-3,10.8-7s10.6-7.2,10.5-7.4s-4.9,3-10.8,7S335.5,349.1,335.6,349.2z"/>
	<path class="st5" d="M340.8,334.6c2.3,0.6,4.7,0.8,7.1,0.6c-1.2-0.2-2.4-0.3-3.5-0.4C343.2,334.7,342,334.6,340.8,334.6z"/>
	<path class="st5" d="M361.9,331.9c0.4,0.9,0.9,1.7,1.6,2.5c0.6,0.8,1.2,1.6,2,2.3c-0.4-0.9-0.9-1.7-1.6-2.5
		C363.4,333.3,362.7,332.5,361.9,331.9z"/>
	<path class="st5" d="M357.6,352.1c0.8-0.3,1.6-0.8,2.3-1.3c1.4-0.9,3.3-2.1,5.3-3.5s3.8-2.9,5.1-3.9c0.7-0.5,1.4-1.1,2-1.7
		c-0.8,0.4-1.5,0.9-2.2,1.4c-1.4,1.1-3.2,2.3-5.1,3.7s-3.9,2.7-5.2,3.7C359,351,358.3,351.5,357.6,352.1z"/>
	<path class="st7" d="M374.8,373.5c3.5-0.9,7.7,2.5,8.5,6.1s-0.6,7.2-2.2,10.5c-3.4,7.4-8.3,13.9-14.6,19.1
		c-6.3,5.2-14.1,8.1-22.3,8.2c1.5-6.9-0.4-14.1,0.4-21.2c1.5-12.7,11.6-22.7,24.3-24.2C371.2,371.8,373.9,371.5,374.8,373.5"/>
	<path class="st5" d="M344.2,417.4c0.2-0.1,0.3-0.1,0.5-0.2c0.5-0.3,0.9-0.6,1.3-0.9c1.5-1.3,2.7-2.9,3.5-4.6
		c0.6-1.1,1.2-2.3,1.8-3.6s1.2-2.7,1.9-4.2c0.7-1.5,1.5-3,2.3-4.5c1-1.5,2-3,3.2-4.4c2.4-2.8,5-5.3,7.2-7.6c2-2,3.9-4.3,5.5-6.6
		c1.1-1.6,2-3.3,2.7-5.1c0.2-0.6,0.4-1.2,0.5-1.5c0.1-0.2,0.1-0.4,0.1-0.5c0,0-0.2,0.7-0.8,2c-0.8,1.8-1.7,3.4-2.8,5
		c-1.7,2.3-3.5,4.5-5.6,6.5c-2.2,2.3-4.9,4.8-7.3,7.6c-1.2,1.4-2.3,2.9-3.2,4.4c-0.9,1.5-1.7,3-2.3,4.5l-1.9,4.2
		c-0.6,1.3-1.2,2.5-1.7,3.6c-0.8,1.8-1.9,3.3-3.3,4.7C344.9,417,344.2,417.3,344.2,417.4z"/>
	<path class="st5" d="M362.4,411.6c0-0.8-0.1-1.6-0.3-2.4c-0.3-1.5-0.7-3.4-1.3-5.6s-1.3-4.1-1.8-5.5c-0.2-0.8-0.6-1.5-1-2.2
		c0.1,0.8,0.3,1.6,0.6,2.3c0.4,1.4,1,3.4,1.6,5.5s1.1,4.1,1.5,5.5C361.9,410.1,362.1,410.9,362.4,411.6z"/>
	<path class="st5" d="M344.9,394.6c0.8-0.1,1.7-0.3,2.5-0.6c1.5-0.4,3.6-0.9,5.9-1.5s4.5-0.9,6-1.2c0.8-0.1,1.7-0.3,2.5-0.5
		c-0.9,0-1.7,0.1-2.5,0.2c-1.6,0.2-3.7,0.6-6.1,1.1s-4.4,1.1-5.9,1.6C346.4,394,345.6,394.3,344.9,394.6z"/>
	<path class="st5" d="M375.5,399.6c0-0.9-0.2-1.8-0.4-2.8c-0.3-1.7-0.8-4-1.5-6.5s-1.4-4.8-1.9-6.4c-0.2-0.9-0.6-1.8-1-2.6
		c0.1,0.9,0.4,1.8,0.7,2.7c0.5,1.6,1.1,3.9,1.8,6.4s1.2,4.8,1.6,6.5C375,397.8,375.2,398.7,375.5,399.6z"/>
	<path class="st5" d="M353,379.9c0,0.1,4.4-0.2,9.8-0.8c3.3-0.3,6.5-0.7,9.8-1.3c0-0.1-4.4,0.2-9.8,0.8
		C359.5,378.8,356.2,379.3,353,379.9z"/>
	<path class="st6" d="M356.2,433.2c0,0.1,15.5,0.2,34.5,0.2s34.5-0.1,34.5-0.2s-15.5-0.2-34.5-0.2S356.2,433,356.2,433.2z"/>
	<path class="st6" d="M366.9,453.1c0,0.1,10.4,0.2,23.3,0.2s23.3-0.1,23.3-0.2s-10.4-0.2-23.3-0.2S366.9,452.9,366.9,453.1z"/>
	<path class="st6" d="M367.4,455.9c0,0.1,10.2,0.2,22.9,0.2s22.9-0.1,22.9-0.2s-10.2-0.2-22.9-0.2S367.4,455.8,367.4,455.9z"/>
	<path class="st6" d="M366.5,450.7c0,0.1,10.8,0.2,24.1,0.2s24.1-0.1,24.1-0.2s-10.8-0.2-24.1-0.2S366.5,450.6,366.5,450.7z"/>
</g>
<g id="freepik--Device--inject-25">
	<path class="st5" d="M308.1,373.8l-115.8-0.1c-13.9,0-25.2-11.3-25.2-25.2l0,0l0.1-290.3c0-13.9,11.3-25.2,25.2-25.2l115.8,0
		c13.9,0,25.2,11.3,25.2,25.2l-0.1,290.3C333.3,362.5,322,373.8,308.1,373.8L308.1,373.8z"/>
	<path class="st3" d="M308,43.2h-22.5c-3.1,0.1-5.5,2.6-5.5,5.7V53c0.1,3.1-2.4,5.6-5.5,5.7h-43.8c-3.1-0.1-5.5-2.6-5.5-5.7l0,0
		v-4.1c0.1-3.1-2.4-5.6-5.5-5.7h-27.5c-9.8,0-17.7,7.9-17.7,17.6l0,0l-0.1,283.4c0,9.8,7.9,17.7,17.7,17.7l0,0l115.6,0.1
		c9.8,0,17.7-7.9,17.7-17.7l0,0V60.9C325.7,51.2,317.8,43.3,308,43.2L308,43.2z"/>
	<path class="st5" d="M239.5,349.6c0,1.2-1,2.2-2.2,2.2s-2.2-1-2.2-2.2s1-2.2,2.2-2.2l0,0C238.5,347.4,239.5,348.4,239.5,349.6
		L239.5,349.6z"/>
	<path class="st2" d="M251.9,349.5c0,1.2-1,2.2-2.2,2.2s-2.2-1-2.2-2.2s1-2.2,2.2-2.2S251.9,348.3,251.9,349.5L251.9,349.5z"/>
	<path class="st2" d="M264.3,349.4c0,1.2-1,2.2-2.2,2.2s-2.2-1-2.2-2.2s1-2.2,2.2-2.2C263.3,347.2,264.3,348.2,264.3,349.4
		L264.3,349.4z"/>
	<path class="st5" d="M190.1,82.3c0.1,0,0.2,0,0.3,0h0.8l2.8-0.1l-0.1,0.1c0-0.6,0-1.3,0-2c0-0.4,0-0.7,0-1.2
		c0.1-0.5,0.5-0.8,0.9-0.9c0.5,0,0.9,0,1.3,0c0.5,0.1,0.9,0.5,0.9,1.1c0,0.9,0,1.9,0,3l-0.1-0.2h3.5l-0.2,0.2c0-1.4,0-2.9,0-4.4
		c0-0.4,0-0.7,0-1.1c0-0.3-0.2-0.6-0.5-0.8c-0.5-0.5-1-1-1.5-1.5l-1.5-1.6l-0.7-0.7c-0.2-0.2-0.4-0.5-0.7-0.5
		c-0.3-0.1-0.6,0-0.8,0.2s-0.4,0.4-0.6,0.6l-1.3,1.3c-0.8,0.8-1.6,1.6-2.2,2.3c-0.2,0.4-0.2,0.9-0.2,1.3v1.2c0,0.8,0,1.4,0,2
		s0,0.9,0,1.3C190.1,82,190.1,82.2,190.1,82.3c0.1,0,0.1-0.1,0.1-0.4s0-0.8,0-1.3s0-1.2,0-2c0-0.4,0-0.8,0-1.3c0-0.2,0-0.5,0-0.7
		c0-0.3,0.1-0.5,0.2-0.7c0.6-0.8,1.4-1.5,2.2-2.3l1.2-1.3c0.2-0.2,0.4-0.4,0.7-0.7c0.3-0.2,0.7-0.3,1-0.2c0.3,0.1,0.6,0.3,0.9,0.6
		l0.7,0.7l1.5,1.5l1.5,1.5c0.3,0.2,0.5,0.6,0.6,1c0,0.4,0,0.8,0,1.1c0,1.5,0,3,0,4.4v0.2h-0.1h-3.5H197v-0.2c0-1,0-2,0-3
		c0-0.4-0.3-0.8-0.7-0.8s-0.9,0-1.3,0c-0.4,0-0.7,0.3-0.8,0.7c0,0.3,0,0.8,0,1.1c0,0.7,0,1.4,0,2v0.1h-0.1h-2.8h-0.7L190.1,82.3z"/>
	<path class="st1" d="M318.2,96.6h0.2c1,0,1.8,0.8,1.8,1.8v247.1c0,1-0.8,1.8-1.8,1.8h-0.2c-1,0-1.8-0.8-1.8-1.8V98.4
		C316.4,97.4,317.2,96.6,318.2,96.6z"/>
	<path class="st2" d="M318.2,108.1h0.1c0.7,0,1.2,0.5,1.2,1.2v17.8c0,0.7-0.5,1.2-1.2,1.2h-0.1c-0.7,0-1.2-0.5-1.2-1.2v-17.8
		C317,108.6,317.5,108.1,318.2,108.1z"/>
	<path class="st3" d="M191.1,95.3h117.2c2.4,0,4.4,2,4.4,4.4V145c0,2.4-2,4.4-4.4,4.4H191.1c-2.4,0-4.4-2-4.4-4.4V99.7
		C186.7,97.3,188.6,95.3,191.1,95.3z"/>
	<path class="st7" d="M190.7,95.4h60.1l0,0v54.1l0,0h-60.1c-2.2,0-4-1.8-4-4V99.4C186.7,97.2,188.4,95.4,190.7,95.4z"/>
	<g class="st9">
		<path d="M239,124.6c2-1.3,2.8-3.7,3.6-5.9c0.5-1.5,0.9-3.1,0.2-4.5c-0.7-1-1.6-1.7-2.7-2.1c-3.9-1.8-8-3.2-12.2-4.2l-30.5,10.8
			c-0.6,2.5,0.8,5,3.3,5.6c1.2,0.3,2.5,0.1,3.6-0.5c1.2,6,0.7,12.2-1.4,17.9c-0.4,0.7-0.5,1.6-0.2,2.4c0.5,0.9,1.6,0.9,2.6,0.9
			l30.6,0.1c1.5,0,3.2-0.1,4.1-1.2s0.6-3,0.2-4.5l-3-11.4c-0.3-0.7-0.3-1.4-0.1-2.1C237.5,125.4,238.4,125,239,124.6z"/>
	</g>
	<path class="st3" d="M235.1,139.5c-0.2-0.4-2.9-10.2-2.9-10.2l0.5-10.4l0.5-14.4l-7-1.2c-5.1,2.9-13,4.2-18.2,1.8
		c0,0-2.8,0.1-4.1,1.4c-0.5,0.5,0.3,4.7,1.1,8.8c0.8,4.3,3.1,15.1,3.1,15.1s-3.8,9.2-4.6,11.9c0,0,23.4-4.2,31.3,0
		C234.7,142.4,236.4,142.1,235.1,139.5z"/>
	<path class="st3" d="M195.3,111.8l8.8-5.4l2.4,12l-4.5,3.8C201.9,122.2,195.1,118.7,195.3,111.8z"/>
	<path class="st3" d="M233.2,104.6l8.9,3.8c0,0-2.9,11.2-4.6,12.4l-4.5-1.9l-1.1,3.5l-0.1-14L233.2,104.6z"/>
	<path class="st2" d="M202.7,121.2c-0.2,0-0.3-0.1-0.4-0.2c-0.4-0.2-0.8-0.5-1.1-0.7c-1.2-0.9-2.2-2-3-3.2c-0.4-0.7-0.8-1.4-1.1-2.2
		c-0.2-0.6-0.4-1.3-0.5-1.9c-0.1-0.4-0.1-0.9-0.1-1.3c0-0.2,0-0.3,0-0.5c0.1,0,0.1,0.7,0.3,1.8c0.1,0.6,0.3,1.3,0.5,1.9
		c0.3,0.7,0.7,1.5,1.1,2.1c0.8,1.2,1.8,2.3,2.9,3.2C202.1,120.7,202.7,121.1,202.7,121.2z"/>
	<path class="st2" d="M205.2,116.8c0,0-0.1,0-0.3-0.2c-0.3-0.2-0.5-0.4-0.8-0.7c-0.8-0.8-1.5-1.7-2.1-2.6s-1.2-1.9-1.7-2.8
		c-0.2-0.4-0.4-0.8-0.5-1.3c0,0,0.2,0.5,0.7,1.2s1.1,1.7,1.8,2.8s1.4,2,2,2.6c0.3,0.3,0.5,0.6,0.7,0.7S205.2,116.7,205.2,116.8z"/>
	<path class="st2" d="M232.2,105.4c-0.3,0.1-0.7,0.2-1.1,0.3c-0.7,0.2-1.7,0.4-2.9,0.8l-4.3,1.3c-1.7,0.6-3.5,1-5.4,1.2
		c-3.3,0.4-6.7,0.1-9.9-1c-1-0.3-1.9-0.7-2.8-1.2c-0.3-0.2-0.6-0.3-0.7-0.4l-0.2-0.2c0.3,0.1,0.7,0.3,1,0.5c0.9,0.4,1.8,0.8,2.8,1.1
		c3.2,1,6.5,1.3,9.8,0.9c1.8-0.3,3.6-0.7,5.3-1.2c1.6-0.5,3.1-0.9,4.3-1.3s2.2-0.6,2.9-0.7c0.4-0.1,0.6-0.1,0.8-0.1
		C232,105.4,232.1,105.4,232.2,105.4z"/>
	<path class="st2" d="M233.1,113.5c0,0-0.1,0-0.3,0.1l-0.8,0.1c-0.7,0.1-1.7,0.2-3,0.4c-3.3,0.3-6.7,0.5-10,0.5
		c-3.9,0-7.5-0.1-10-0.3l-3-0.2l-0.8-0.1c-0.1,0-0.2,0-0.3,0h0.3h0.8l3,0.1c2.6,0.1,6.1,0.2,10,0.2s7.5-0.2,10-0.4
		c1.3-0.1,2.3-0.2,3-0.3l0.8-0.1C232.9,113.6,233,113.6,233.1,113.5z"/>
	<path class="st2" d="M232.7,119c-0.3,0.1-0.7,0.2-1,0.3c-0.3,0.1-0.7,0.2-1.2,0.3s-1,0.2-1.6,0.3c-3.1,0.5-6.3,0.8-9.5,0.8
		c-3.7,0.1-7.1,0-9.5-0.2c-1.2-0.1-2.2-0.2-2.9-0.3c-0.3,0-0.7-0.1-1-0.2c0.4,0,0.7,0,1.1,0.1c0.7,0,1.7,0.1,2.9,0.2
		c2.4,0.1,5.8,0.2,9.5,0.1c3.2-0.1,6.3-0.3,9.4-0.7c0.6-0.1,1.2-0.2,1.6-0.3c0.5-0.1,0.9-0.2,1.2-0.2C232,119.1,232.4,119,232.7,119
		z"/>
	<path class="st2" d="M231.9,126.4c-0.3,0.1-0.7,0.1-1,0.1c-0.6,0.1-1.5,0.2-2.6,0.2c-2.2,0.2-5.3,0.3-8.8,0.4s-6.5-0.1-8.8-0.3
		c-1.1-0.1-2-0.2-2.6-0.3c-0.3,0-0.7-0.1-1-0.2c0.3,0,0.7,0,1,0.1c0.6,0.1,1.5,0.1,2.6,0.2c2.2,0.1,5.3,0.2,8.8,0.2s6.5-0.2,8.8-0.3
		l2.6-0.2C231.3,126.4,231.6,126.4,231.9,126.4z"/>
	<path class="st2" d="M233.4,133.7c-0.3,0-0.7,0-1.1,0l-2.9-0.2c-2.4-0.2-5.8-0.3-9.5-0.3s-7.1,0.2-9.5,0.3l-2.9,0.2
		c-0.4,0-0.7,0-1.1,0c0.3-0.1,0.7-0.1,1-0.2c0.7-0.1,1.6-0.2,2.9-0.3c2.4-0.2,5.8-0.4,9.5-0.4s7.1,0.2,9.5,0.4
		c1.2,0.1,2.2,0.2,2.9,0.3C232.7,133.5,233,133.6,233.4,133.7z"/>
	<path class="st2" d="M236.2,107.7c-0.2,0.9-0.6,1.8-1.2,2.5c-0.4,0.8-1,1.6-1.8,2.2c-0.1,0,0.7-1,1.5-2.3S236.1,107.7,236.2,107.7z
		"/>
	<path class="st5" d="M204.2,111c0.1,0.2,0.2,0.5,0.2,0.8c0.1,0.6,0.3,1.2,0.4,2.1c0.4,1.8,0.9,4.2,1.4,6.9s1,5.1,1.4,6.9
		c0.1,0.9,0.3,1.6,0.3,2.1c0.1,0.3,0.1,0.5,0.1,0.8c-0.1-0.2-0.2-0.5-0.2-0.8c-0.1-0.6-0.3-1.2-0.4-2.1c-0.4-1.8-0.9-4.2-1.4-6.8
		s-1-5.1-1.4-6.9c-0.1-0.9-0.3-1.6-0.3-2.1C204.2,111.5,204.2,111.3,204.2,111z"/>
	<path class="st5" d="M233.3,114.2c0,0.2,0,0.4,0,0.6c0,0.4,0,0.9-0.1,1.6c-0.1,1.4-0.2,3.3-0.3,5.4s-0.3,4-0.4,5.3
		c-0.1,0.7-0.1,1.2-0.2,1.6c0,0.2,0,0.4-0.1,0.6c0-0.2,0-0.4,0-0.6c0-0.4,0-0.9,0.1-1.6c0.1-1.4,0.2-3.3,0.3-5.4s0.3-4,0.4-5.4
		c0.1-0.7,0.1-1.2,0.2-1.6C233.2,114.6,233.2,114.4,233.3,114.2z"/>
	<path class="st2" d="M239.7,107.6c-0.2,0.6-0.4,1.2-0.7,1.8c-0.5,1.1-1.1,2.6-1.6,4.3s-0.9,3.3-1.2,4.4c-0.1,0.6-0.3,1.2-0.4,1.9
		c0,0,0-0.2,0-0.5s0.1-0.8,0.2-1.4c0.3-1.5,0.6-3,1.1-4.5s1-2.9,1.7-4.3c0.3-0.5,0.5-1,0.6-1.2C239.5,107.9,239.6,107.7,239.7,107.6
		z"/>
	<path class="st2" d="M235.1,139.9c-0.1,0-0.2,0-0.3-0.1l-0.9-0.2c-0.4-0.1-0.9-0.2-1.4-0.3s-1.2-0.3-1.9-0.4s-1.5-0.3-2.4-0.4
		s-1.8-0.2-2.7-0.3c-4.2-0.3-8.4,0-12.5,0.8c-0.9,0.2-1.8,0.4-2.7,0.6s-1.6,0.4-2.3,0.7s-1.3,0.4-1.9,0.6s-1,0.4-1.4,0.5l-0.9,0.3
		c-0.1,0-0.2,0.1-0.3,0.1c0,0,0.1-0.1,0.3-0.1l0.9-0.4c0.4-0.2,0.8-0.4,1.4-0.6s1.1-0.5,1.9-0.7s1.5-0.5,2.3-0.7s1.7-0.4,2.7-0.6
		c4.1-0.9,8.3-1.1,12.5-0.8c1,0.1,1.9,0.2,2.7,0.3s1.6,0.2,2.4,0.4s1.4,0.3,1.9,0.4s1.1,0.3,1.4,0.4l0.9,0.3
		C234.9,139.8,235,139.8,235.1,139.9z"/>
	<path class="st7" d="M250.9,149.9c-0.1,0-0.3-12-0.3-26.9s0.1-26.9,0.3-26.9s0.3,12,0.3,26.9S251,149.9,250.9,149.9z"/>
	<path class="st7" d="M308.3,149.5c0,0,0.3,0,0.9-0.1c0.9-0.2,1.7-0.7,2.3-1.3c0.4-0.5,0.8-1,1-1.7c0.2-0.8,0.3-1.6,0.2-2.3
		c0-1.7,0-3.7,0-5.9c0-8.9,0-21.8-0.1-37.8c0-0.5,0-1-0.1-1.5c-0.3-1.5-1.4-2.7-2.8-3.2c-1-0.2-2-0.3-3.1-0.2h-16.9h-30H191
		c-1.5,0-2.8,0.8-3.6,2c-0.4,0.6-0.6,1.3-0.6,2v11.2c0,5.9,0,11.8,0,17.5v16.9c0.1,1.3,0.7,2.5,1.8,3.3c0.5,0.4,1.1,0.6,1.8,0.7
		c0.7,0,1.3,0,2,0h8l56.1,0.1l37.8,0.1h10.3h2.7h0.9c0,0-0.3,0-0.9,0h-2.7l-10.3,0.1l-37.8,0.1l-56.1,0.1h-8c-0.7,0-1.4,0-2.1,0
		c-0.7-0.1-1.4-0.4-2-0.8c-1.2-0.8-1.9-2.2-2-3.7c0-5.5,0-11.2,0-16.9V99.6c0.1-2.5,2.1-4.5,4.7-4.6h68.7h30h13.6h4.8
		c0.5,0,1.1,0.1,1.6,0.2c1.6,0.5,2.7,1.8,3,3.4c0.1,0.5,0.1,1,0.1,1.5c0,16-0.1,28.9-0.1,37.8c0,2.2,0,4.2,0,5.9
		c0.1,0.8,0,1.6-0.2,2.4c-0.2,0.6-0.6,1.2-1,1.7c-0.6,0.7-1.4,1.1-2.3,1.3C309,149.4,308.6,149.5,308.3,149.5z"/>
	<path class="st7" d="M278.7,107.7c0,0.1-5.2,0.3-11.5,0.3s-11.5-0.1-11.5-0.3s5.2-0.3,11.5-0.3S278.7,107.6,278.7,107.7z"/>
	<path class="st7" d="M301,114.8c0,0.1-10.2,0.3-22.8,0.3s-22.8-0.1-22.8-0.3s10.2-0.3,22.8-0.3S301,114.7,301,114.8z"/>
	<path class="st7" d="M301,119c0,0.2-10.2,0.3-22.8,0.3s-22.8-0.1-22.8-0.3s10.2-0.3,22.8-0.3S301,118.8,301,119z"/>
	<path class="st7" d="M296.2,139.5c-0.1-0.5-0.2-0.9-0.6-1.3c-0.3-0.4-0.7-0.6-1.1-0.8c-0.8-0.2-1.6,0.2-2,0.9
		c-0.1-0.2-0.3-0.4-0.5-0.6c-0.4-0.3-0.9-0.4-1.4-0.3c-0.5,0.1-0.9,0.3-1.2,0.7c-0.3,0.3-0.5,0.8-0.6,1.2c-0.1,0.6,0,1.2,0.3,1.8
		c0.3,0.5,0.8,1,1.3,1.3l2.1,1.3c0,0,1-0.7,1.9-1.2c0.6-0.3,1-0.7,1.4-1.3C296.1,140.7,296.2,140.1,296.2,139.5z"/>
	<path class="st5" d="M292.4,143.9L292.4,143.9c-0.1,0-1.2-0.7-2.1-1.3c-0.6-0.3-1-0.8-1.4-1.4c-0.3-0.6-0.4-1.2-0.3-1.8
		c0.1-0.5,0.3-1,0.7-1.3c0.3-0.4,0.8-0.6,1.2-0.7c0.5-0.1,1.1,0,1.5,0.3c0.2,0.1,0.3,0.3,0.5,0.5c0.5-0.6,1.2-0.9,2-0.8
		c0.5,0.1,0.9,0.4,1.2,0.8c0.3,0.4,0.5,0.8,0.6,1.3c0.1,0.6-0.1,1.3-0.4,1.8c-0.4,0.5-0.9,1-1.5,1.3
		C293.5,143.2,292.5,143.9,292.4,143.9L292.4,143.9z M290.9,137.6c-0.1,0-0.2,0-0.3,0c-0.9,0.2-1.6,0.9-1.7,1.8
		c-0.1,0.6,0,1.2,0.3,1.7s0.8,1,1.3,1.3c0.8,0.5,1.7,1.1,2,1.2c0.2-0.2,1.1-0.8,1.9-1.2c0.5-0.3,1-0.7,1.4-1.2
		c0.3-0.5,0.4-1.1,0.4-1.6l0,0c0-0.4-0.2-0.9-0.5-1.2s-0.7-0.6-1.1-0.7c-0.7-0.2-1.5,0.2-1.9,0.8l-0.1,0.2l-0.1-0.2
		c-0.1-0.2-0.3-0.4-0.5-0.6C291.6,137.7,291.2,137.6,290.9,137.6L290.9,137.6z"/>
	<path class="st5" d="M306.7,142.5h-1.5h-3.7l0,0l0,0l-0.1-0.6c-0.2-1.8-0.4-3.4-0.6-4.4l0,0h-1h-0.3c-0.1,0-0.1,0-0.1,0h1.4
		c0.1,1,0.4,2.6,0.6,4.4c0,0.2,0,0.4,0.1,0.6l0,0l3.7,0.1h1.1L306.7,142.5L306.7,142.5z"/>
	<path class="st5" d="M305.2,142.6h-3.7c0,0-0.1,0-0.1-0.1l-0.1-0.6l-0.6-4.4h-1.1c-0.1,0-0.2,0-0.2-0.1s0.1-0.1,0.2-0.1h1.2
		c0,0,0.1,0,0.1,0.1l0,0l0.6,4.6c0,0.1,0,0.3,0,0.4l5,0.1c0.1,0,0.2,0,0.2,0.1s-0.1,0.1-0.2,0.1L305.2,142.6L305.2,142.6z"/>
	<path class="st5" d="M301.4,141.4h1.5h3.8l0,0c0.1-0.6,0.2-1.3,0.4-2.1l0.2-1.1l0,0h-4.5h-1.3h1.3h4.5l0,0l0,0
		c-0.1,0.4-0.1,0.7-0.2,1.1c-0.1,0.7-0.3,1.4-0.4,2.1l0,0l0,0h-3.8h-1.1H301.4L301.4,141.4z"/>
	<path class="st5" d="M306.7,141.6L306.7,141.6l-5.3-0.1c0,0-0.1,0-0.1-0.1c0,0,0,0,0-0.1h0.1h1.5h3.7l0.5-2.9l-6.1-0.1
		c0,0-0.1,0-0.1-0.1s0.1-0.1,0.1-0.1h1.8h4.5h0.1c0,0,0,0,0,0.1l-0.2,1.1c-0.1,0.5-0.2,0.9-0.2,1.4l-0.1,0.7
		C306.8,141.5,306.8,141.5,306.7,141.6C306.8,141.6,306.8,141.6,306.7,141.6z"/>
	<path class="st5" d="M302.8,143.9c0,0,0,0,0-0.1s-0.1-0.2-0.2-0.3s-0.3-0.1-0.5-0.1c-0.2,0.1-0.3,0.2-0.3,0.4s0.1,0.4,0.3,0.5
		c0.2,0.1,0.3,0,0.5-0.1C302.7,144.1,302.8,144,302.8,143.9C302.8,143.9,302.8,143.9,302.8,143.9v0.1c0,0.1-0.1,0.2-0.2,0.3
		s-0.3,0.1-0.5,0.1c-0.3-0.1-0.4-0.5-0.3-0.7c0.1-0.1,0.2-0.2,0.3-0.3c0.2-0.1,0.4,0,0.5,0.1C302.7,143.6,302.8,143.7,302.8,143.9
		C302.8,143.8,302.8,143.9,302.8,143.9z"/>
	<path class="st5" d="M302.3,144.5c-0.1,0-0.1,0-0.2,0c-0.2-0.1-0.4-0.3-0.4-0.6s0.3-0.6,0.6-0.6c0.1,0,0.3,0,0.4,0.1
		s0.2,0.2,0.2,0.4v0.1v0.1c0,0.1-0.1,0.3-0.2,0.4C302.6,144.5,302.4,144.5,302.3,144.5z M302.3,143.5h-0.1c-0.2,0.1-0.3,0.2-0.3,0.4
		s0.1,0.3,0.3,0.4c0.1,0,0.3,0,0.4-0.1s0.1-0.1,0.2-0.2v-0.1l0,0v-0.1c0-0.1-0.1-0.2-0.2-0.2C302.5,143.5,302.4,143.5,302.3,143.5
		L302.3,143.5z"/>
	<path class="st5" d="M306.1,143.9c0,0,0,0,0-0.1s-0.1-0.2-0.2-0.3s-0.3-0.1-0.5-0.1c-0.2,0.1-0.3,0.2-0.3,0.4s0.1,0.4,0.3,0.5
		c0.2,0.1,0.3,0,0.5-0.1C306,144.1,306.1,144,306.1,143.9C306.1,144,306.1,143.9,306.1,143.9v0.1c0,0.1-0.1,0.2-0.2,0.3
		c-0.2,0.2-0.6,0.1-0.8-0.1c-0.1-0.1-0.1-0.2-0.1-0.3c0-0.2,0.1-0.4,0.4-0.5c0.2-0.1,0.4,0,0.5,0.1S306.1,143.7,306.1,143.9
		L306.1,143.9z"/>
	<path class="st5" d="M305.6,144.5c-0.1,0-0.1,0-0.2,0c-0.3-0.1-0.5-0.5-0.4-0.8c0.1-0.2,0.2-0.3,0.4-0.4c0.2-0.1,0.4,0,0.6,0.1
		c0.1,0.1,0.2,0.2,0.2,0.4v0.1v0.1c0,0.1-0.1,0.3-0.2,0.3C305.9,144.5,305.7,144.6,305.6,144.5z M305.6,143.5h-0.1
		c-0.2,0.1-0.3,0.2-0.3,0.4s0.1,0.3,0.3,0.4c0.1,0.1,0.3,0,0.4-0.1s0.1-0.1,0.2-0.2v-0.1l0,0l0,0v-0.1c0-0.1-0.1-0.2-0.2-0.2
		C305.8,143.6,305.7,143.5,305.6,143.5L305.6,143.5z"/>
	<path class="st5" d="M308.5,137.8c0,0.8-0.7,1.5-1.5,1.5s-1.5-0.7-1.5-1.5s0.7-1.5,1.5-1.5S308.5,137,308.5,137.8L308.5,137.8z"/>
	<path class="st3" d="M307.1,138.6L307.1,138.6L307.1,138.6c0-0.2,0-0.5,0-0.8s0-0.5,0.1-0.8c0,0.3,0,0.5,0,0.8
		C307.1,138.1,307.1,138.4,307.1,138.6L307.1,138.6L307.1,138.6z"/>
	<path class="st3" d="M307.9,137.9c-0.3,0-0.5,0-0.8,0s-0.5,0-0.8-0.1c0.3,0,0.5,0,0.8,0C307.3,137.8,307.6,137.8,307.9,137.9z"/>
	<path class="st7" d="M277.9,141.2c0,0.1-4.7,0.3-10.5,0.3s-10.5-0.1-10.5-0.3s4.7-0.3,10.5-0.3S277.9,141.1,277.9,141.2z"/>
	<path class="st1" d="M191.1,157.9h117.2c2.4,0,4.4,2,4.4,4.4v45.3c0,2.4-2,4.4-4.4,4.4H191.1c-2.4,0-4.4-2-4.4-4.4v-45.3
		C186.7,159.9,188.6,157.9,191.1,157.9z"/>
	<path class="st3" d="M190.7,158h60.1l0,0v54.1l0,0h-60.1c-2.2,0-4-1.8-4-4V162C186.7,159.8,188.4,158,190.7,158z"/>
	<path class="st2" d="M250.9,212.5c-0.1,0-0.3-12-0.3-26.9s0.1-26.9,0.3-26.9s0.3,12,0.3,26.9S251,212.5,250.9,212.5z"/>
	<path class="st2" d="M308.3,212.1c0,0,0.3,0,0.9-0.1c0.9-0.2,1.7-0.6,2.3-1.3c0.4-0.5,0.8-1,1-1.7c0.2-0.8,0.3-1.5,0.2-2.3
		c0-1.7,0-3.7,0-5.9c0-8.9,0-21.9-0.1-37.8c0-0.5,0-1-0.1-1.5c-0.3-1.5-1.4-2.7-2.8-3.2c-1-0.2-2-0.3-3.1-0.2h-16.9h-30H191
		c-1.5,0-2.8,0.8-3.6,2c-0.4,0.6-0.6,1.3-0.6,2v11.2c0,5.9,0,11.8,0,17.5v16.9c0.1,2,1.6,3.7,3.6,4c0.6,0.1,1.3,0,2,0h8l56.1,0.1
		l37.8,0.1h10.3h2.7h0.9h-0.9h-2.7l-10.3,0.1l-37.8,0.1l-56.1,0.1h-8c-0.7,0-1.4,0-2.1,0c-2.2-0.3-3.9-2.2-4-4.4
		c0-5.5,0-11.2,0-16.9v-28.5c0.1-2.5,2.2-4.5,4.7-4.5h68.7h30h13.6h4.8c0.5,0,1.1,0.1,1.6,0.2c1.6,0.5,2.7,1.8,3,3.4
		c0.1,0.5,0.1,1,0.1,1.5c0,16-0.1,28.9-0.1,37.8c0,2.2,0,4.2,0,5.9c0.1,0.8,0,1.6-0.2,2.4c-0.2,0.6-0.5,1.2-1,1.7
		c-0.6,0.7-1.4,1.1-2.3,1.3C309,212.1,308.6,212.1,308.3,212.1z"/>
	<path class="st5" d="M278.7,170.3c0,0.1-5.2,0.3-11.5,0.3s-11.5-0.1-11.5-0.3s5.2-0.3,11.5-0.3S278.7,170.2,278.7,170.3z"/>
	<path class="st2" d="M301,177.4c0,0.1-10.2,0.3-22.8,0.3s-22.8-0.1-22.8-0.3s10.2-0.3,22.8-0.3S301,177.3,301,177.4z"/>
	<path class="st2" d="M301,181.6c0,0.1-10.2,0.3-22.8,0.3s-22.8-0.1-22.8-0.3s10.2-0.3,22.8-0.3S301,181.5,301,181.6z"/>
	<path class="st7" d="M296.2,202.2c-0.1-0.5-0.2-0.9-0.6-1.3c-0.3-0.4-0.7-0.6-1.1-0.8c-0.5-0.1-1,0-1.4,0.2
		c-0.2,0.2-0.5,0.4-0.6,0.6c-0.1-0.2-0.3-0.4-0.5-0.6c-0.4-0.3-0.9-0.4-1.4-0.3c-0.5,0.1-0.9,0.3-1.2,0.7c-0.3,0.3-0.5,0.8-0.6,1.2
		c-0.1,0.6,0,1.2,0.3,1.8c0.3,0.5,0.8,1,1.3,1.3c0.9,0.6,2.1,1.3,2.1,1.3s1-0.7,1.9-1.2c0.6-0.3,1-0.7,1.4-1.2
		C296.1,203.4,296.2,202.8,296.2,202.2z"/>
	<path class="st5" d="M292.4,206.5L292.4,206.5c-0.1,0-1.2-0.7-2.1-1.3c-0.6-0.3-1-0.8-1.4-1.4c-0.3-0.6-0.4-1.2-0.3-1.8
		c0.1-0.5,0.3-1,0.7-1.3c0.3-0.4,0.8-0.6,1.2-0.7c0.5-0.1,1.1,0,1.5,0.3c0.2,0.1,0.3,0.3,0.5,0.5c0.1-0.2,0.3-0.4,0.5-0.5
		c0.5-0.3,1-0.4,1.5-0.2c0.5,0.1,0.9,0.4,1.2,0.8c0.3,0.4,0.5,0.8,0.6,1.4c0.1,0.6-0.1,1.3-0.4,1.8c-0.4,0.5-0.9,1-1.5,1.3
		C293.5,205.8,292.5,206.5,292.4,206.5L292.4,206.5z M290.9,200.2c-0.1,0-0.2,0-0.3,0c-0.4,0.1-0.8,0.3-1.1,0.6
		c-0.3,0.3-0.5,0.7-0.6,1.2c-0.1,0.6,0,1.2,0.3,1.7s0.8,1,1.3,1.3c0.8,0.5,1.7,1.1,2,1.2c0.2-0.2,1.1-0.8,1.9-1.2
		c0.5-0.3,1-0.7,1.4-1.2c0.3-0.5,0.4-1.1,0.4-1.6l0,0c0-0.4-0.2-0.9-0.5-1.2s-0.7-0.6-1.1-0.7c-0.4-0.1-0.9,0-1.3,0.2
		c-0.2,0.2-0.4,0.4-0.6,0.6l-0.1,0.2l-0.1-0.2c-0.1-0.2-0.3-0.4-0.5-0.6C291.6,200.3,291.2,200.2,290.9,200.2L290.9,200.2z"/>
	<path class="st5" d="M306.7,205.1h-1.5h-3.7l0,0l0,0l-0.1-0.6c-0.2-1.8-0.4-3.4-0.6-4.4l0,0h-1h1l0,0l0.6,4.4c0,0.2,0,0.4,0.1,0.6
		l0,0l3.7,0.1h1.1L306.7,205.1L306.7,205.1z"/>
	<path class="st5" d="M305.2,205.2h-3.7c0,0-0.1,0-0.1-0.1l-0.6-5h-1.1c-0.1,0-0.2,0-0.2-0.1s0.1-0.1,0.2-0.1h1.2c0,0,0.1,0,0.1,0.1
		l0,0l0.6,4.5c0,0.1,0,0.3,0,0.4l5,0.1c0.1,0,0.2,0,0.2,0.1s-0.1,0.1-0.2,0.1H305.2L305.2,205.2z"/>
	<path class="st5" d="M301.4,204h1.5h3.8l0,0c0.1-0.6,0.2-1.3,0.4-2.1c0.1-0.4,0.1-0.7,0.2-1.1l0,0h-4.5h-1.3h1.3h4.5l0,0l0,0
		c-0.1,0.3-0.1,0.7-0.2,1.1c-0.1,0.7-0.3,1.4-0.4,2.1l0,0l0,0l-3.8-0.1h-1.1L301.4,204L301.4,204z"/>
	<path class="st5" d="M306.7,204.2L306.7,204.2l-5.3-0.1c-0.1,0-0.1-0.1-0.1-0.1s0,0,0-0.1c0,0,0,0,0.1,0h1.5h3.7l0.5-2.9l-6.1-0.1
		c0,0-0.1,0-0.1-0.1s0.1-0.1,0.1-0.1h1.8h4.5h0.1c0,0,0,0,0,0.1l-0.2,1.1c-0.1,0.5-0.2,0.9-0.2,1.3l-0.1,0.7
		C306.8,204.1,306.8,204.2,306.7,204.2z"/>
	<path class="st5" d="M302.8,206.5c0,0,0,0,0-0.1s-0.1-0.2-0.2-0.3c-0.2-0.2-0.5-0.1-0.7,0.1c-0.1,0.1-0.1,0.2-0.1,0.3
		c0,0.2,0.1,0.4,0.3,0.5c0.2,0.1,0.3,0,0.5-0.1C302.7,206.8,302.8,206.7,302.8,206.5C302.8,206.6,302.8,206.5,302.8,206.5v0.1
		c0,0.1-0.1,0.2-0.2,0.3c-0.2,0.2-0.6,0.1-0.8-0.1c-0.1-0.1-0.1-0.2-0.1-0.3c0-0.2,0.1-0.4,0.4-0.5c0.2-0.1,0.4,0,0.5,0.1
		S302.8,206.3,302.8,206.5C302.8,206.4,302.8,206.5,302.8,206.5z"/>
	<path class="st5" d="M302.3,207.1c-0.1,0-0.1,0-0.2,0c-0.3-0.1-0.4-0.3-0.4-0.6s0.2-0.5,0.4-0.6c0.2-0.1,0.4,0,0.6,0.1
		c0.1,0.1,0.2,0.2,0.2,0.4v0.1v0.1c0,0.1-0.1,0.3-0.2,0.3C302.6,207.1,302.4,207.2,302.3,207.1z M302.3,206.1h-0.1
		c-0.2,0.1-0.3,0.2-0.3,0.4s0.1,0.3,0.3,0.4c0.1,0,0.3,0,0.4-0.1s0.1-0.1,0.2-0.2v-0.1l0,0l0,0v-0.1c0-0.1-0.1-0.2-0.2-0.2
		C302.5,206.2,302.4,206.1,302.3,206.1L302.3,206.1z"/>
	<path class="st5" d="M306.1,206.6c0,0,0,0,0-0.1s-0.1-0.2-0.2-0.3s-0.3-0.1-0.5-0.1c-0.2,0.1-0.3,0.2-0.3,0.4s0.1,0.4,0.3,0.5
		c0.2,0.1,0.3,0,0.5-0.1C306,206.8,306.1,206.7,306.1,206.6C306.1,206.6,306.1,206.6,306.1,206.6v0.1c0,0.1-0.1,0.2-0.2,0.3
		s-0.3,0.1-0.5,0.1c-0.2-0.1-0.4-0.3-0.4-0.5s0.1-0.4,0.4-0.5c0.2-0.1,0.4,0,0.5,0.1S306.1,206.4,306.1,206.6
		C306.1,206.5,306.1,206.5,306.1,206.6z"/>
	<path class="st5" d="M305.6,207.2c-0.1,0-0.1,0-0.2,0c-0.3-0.1-0.5-0.5-0.4-0.8c0.1-0.2,0.2-0.3,0.4-0.4c0.2-0.1,0.4,0,0.6,0.1
		c0.1,0.1,0.2,0.2,0.2,0.4v0.1v0.1c0,0.1-0.1,0.3-0.2,0.3C305.9,207.1,305.7,207.2,305.6,207.2z M305.6,206.2h-0.1
		c-0.2,0.1-0.3,0.2-0.3,0.4s0.1,0.3,0.3,0.4c0.1,0.1,0.3,0,0.4-0.1s0.1-0.1,0.2-0.2v-0.1l0,0l0,0v-0.1c0-0.1-0.1-0.2-0.2-0.2
		C305.8,206.2,305.7,206.2,305.6,206.2L305.6,206.2z"/>
	<path class="st5" d="M308.5,200.4c0,0.8-0.7,1.5-1.5,1.5s-1.5-0.7-1.5-1.5s0.7-1.5,1.5-1.5C307.8,199,308.5,199.6,308.5,200.4
		L308.5,200.4z"/>
	<path class="st3" d="M307.1,201.2L307.1,201.2L307.1,201.2c0-0.2,0-0.5,0-0.8s0-0.5,0.1-0.8c0,0.3,0,0.5,0,0.8
		C307.1,200.7,307.1,201,307.1,201.2L307.1,201.2L307.1,201.2z"/>
	<path class="st3" d="M307.9,200.5c-0.3,0-0.5,0-0.8,0s-0.5,0-0.8-0.1c0.3,0,0.5,0,0.8,0C307.3,200.5,307.6,200.5,307.9,200.5z"/>
	<path class="st5" d="M277.9,203.9c-3.5,0.3-7,0.4-10.5,0.3c-3.5,0.1-7,0-10.5-0.3c0-0.1,4.7-0.3,10.5-0.3S277.9,203.7,277.9,203.9z
		"/>
	<path class="st1" d="M191.1,219.8h117.2c2.4,0,4.4,2,4.4,4.4v45.3c0,2.4-2,4.4-4.4,4.4H191.1c-2.4,0-4.4-2-4.4-4.4v-45.3
		C186.7,221.8,188.6,219.8,191.1,219.8z"/>
	<path class="st3" d="M190.7,219.9h60.1l0,0V274l0,0h-60.1c-2.2,0-4-1.8-4-4v-46.1C186.7,221.6,188.4,219.9,190.7,219.9z"/>
	<path class="st2" d="M250.9,274.4c-0.1,0-0.3-12-0.3-26.9s0.1-26.9,0.3-26.9s0.3,12.1,0.3,26.9S251,274.4,250.9,274.4z"/>
	<path class="st2" d="M308.3,274c0,0,0.3,0,0.9-0.1c1.5-0.3,2.8-1.5,3.2-3c0.2-0.8,0.3-1.6,0.2-2.3c0-1.7,0-3.7,0-5.9
		c0-8.9,0-21.9-0.1-37.8c0-0.5,0-1-0.1-1.5c-0.3-1.5-1.4-2.7-2.8-3.2c-1-0.2-2-0.3-3.1-0.2h-16.9h-30h-68.7c-2.2,0-4.1,1.8-4.2,4
		v11.2c0,5.9,0,11.8,0,17.5v16.9c0.1,1.3,0.7,2.5,1.8,3.3c0.5,0.4,1.1,0.6,1.8,0.7c0.6,0.1,1.3,0,2,0h8h56.1l37.8,0.1h10.3h2.7h0.9
		h-0.8h-2.7h-10.3l-37.8,0.1l-56.1,0.1h-8c-0.7,0-1.4,0-2.1,0c-2.2-0.3-3.9-2.2-4-4.4c0-5.5,0-11.2,0-16.9V224
		c0.1-2.5,2.2-4.5,4.7-4.5h68.7h30h18.4c0.5,0,1.1,0.1,1.6,0.2c1.6,0.5,2.7,1.8,3,3.4c0.1,0.5,0.1,1,0.1,1.5c0,16-0.1,28.9-0.1,37.8
		c0,2.2,0,4.2,0,5.9c0.1,0.8,0,1.6-0.2,2.4c-0.2,0.6-0.6,1.2-1,1.7c-0.6,0.6-1.4,1.1-2.3,1.3C309,273.9,308.6,274,308.3,274z"/>
	<path class="st5" d="M278.7,232.2c0,0.1-5.2,0.3-11.5,0.3s-11.5-0.1-11.5-0.3s5.2-0.3,11.5-0.3S278.7,232,278.7,232.2z"/>
	<path class="st2" d="M301,239.3c0,0.1-10.2,0.3-22.8,0.3s-22.8-0.1-22.8-0.3s10.2-0.3,22.8-0.3S301,239.1,301,239.3z"/>
	<path class="st2" d="M301,243.5c0,0.1-10.2,0.3-22.8,0.3s-22.8-0.1-22.8-0.3s10.2-0.3,22.8-0.3S301,243.3,301,243.5z"/>
	<path class="st7" d="M296.2,264c-0.1-0.5-0.2-0.9-0.6-1.3c-0.3-0.4-0.7-0.6-1.1-0.7c-0.8-0.2-1.6,0.2-2,0.9
		c-0.1-0.2-0.3-0.4-0.5-0.6c-0.4-0.3-0.9-0.4-1.4-0.3s-0.9,0.3-1.2,0.7c-0.3,0.3-0.6,0.8-0.6,1.2c-0.1,0.6,0,1.2,0.3,1.8
		c0.3,0.5,0.8,1,1.3,1.3l2.1,1.3c0,0,1-0.7,1.9-1.2c0.6-0.3,1-0.7,1.4-1.3C296.1,265.2,296.2,264.6,296.2,264z"/>
	<path class="st5" d="M292.4,268.4L292.4,268.4c-0.1,0-1.2-0.7-2.1-1.3c-0.6-0.3-1-0.8-1.4-1.4c-0.3-0.6-0.4-1.2-0.3-1.8
		c0.1-0.5,0.3-1,0.7-1.3c0.3-0.4,0.8-0.6,1.2-0.7c0.5-0.1,1.1,0,1.5,0.3c0.2,0.1,0.3,0.3,0.5,0.5c0.1-0.2,0.3-0.4,0.5-0.5
		c0.4-0.3,1-0.4,1.5-0.3s0.9,0.4,1.2,0.8c0.3,0.4,0.5,0.8,0.6,1.3c0.1,0.6-0.1,1.3-0.4,1.8c-0.4,0.5-0.9,1-1.5,1.3
		C293.5,267.6,292.5,268.3,292.4,268.4L292.4,268.4z M290.9,262.1h-0.3c-0.4,0.1-0.8,0.3-1.1,0.6c-0.3,0.3-0.5,0.7-0.6,1.2
		c-0.1,0.6,0,1.2,0.3,1.7s0.8,1,1.3,1.3c0.8,0.5,1.7,1.1,2,1.2c0.2-0.2,1.1-0.8,1.9-1.2c0.5-0.3,1-0.7,1.4-1.2
		c0.3-0.5,0.4-1.1,0.4-1.7l0,0c0-0.4-0.2-0.9-0.5-1.2c-0.3-0.3-0.7-0.6-1.1-0.7c-0.7-0.2-1.5,0.2-1.9,0.8l-0.1,0.2l-0.1-0.2
		c-0.1-0.2-0.3-0.4-0.5-0.6C291.6,262.1,291.2,262,290.9,262.1L290.9,262.1z"/>
	<path class="st5" d="M306.7,267h-1.5h-3.7l0,0l0,0l-0.1-0.6c-0.2-1.8-0.4-3.4-0.6-4.4l0,0h-1h1l0,0c0.1,1,0.4,2.6,0.6,4.4
		c0,0.2,0,0.4,0.1,0.6l0,0h3.7h1.1H306.7L306.7,267z"/>
	<path class="st5" d="M305.2,267.1h-3.7c0,0-0.1,0-0.1-0.1l-0.6-5h-1.1c-0.1,0-0.2,0-0.2-0.1s0.1-0.1,0.2-0.1h1.2c0,0,0.1,0,0.1,0.1
		l0,0l0.6,4.5c0,0.1,0,0.3,0,0.4l5,0.1c0.1,0,0.2,0,0.2,0.1s-0.1,0.1-0.2,0.1H305.2L305.2,267.1z"/>
	<path class="st5" d="M301.4,265.9h1.5h3.8l0,0c0.1-0.6,0.2-1.3,0.4-2l0.2-1.1l0,0h-4.5h-1.3h1.3h4.5l0,0l0,0
		c-0.1,0.4-0.1,0.7-0.2,1.1c-0.1,0.7-0.3,1.4-0.4,2.1l0,0l0,0h-3.8h-1.1L301.4,265.9L301.4,265.9z"/>
	<path class="st5" d="M306.7,266L306.7,266h-3.8h-1.1h-0.4c-0.1,0-0.1,0-0.1-0.1l0,0h0.1h1.5h3.7l0.5-2.9l-5-0.1h-0.7h-0.5
		c-0.1,0-0.1,0-0.1-0.1s0.1-0.1,0.1-0.1h0.5h2.6h3.2h0.1c0,0,0,0,0,0.1l-0.2,1.1L306.7,266C306.8,266,306.8,266.1,306.7,266z"/>
	<path class="st5" d="M302.8,268.4c0,0,0,0,0-0.1s-0.1-0.2-0.2-0.3c-0.1-0.1-0.3-0.1-0.5-0.1c-0.2,0.1-0.3,0.2-0.3,0.5
		c0,0.2,0.1,0.4,0.3,0.5c0.2,0.1,0.3,0,0.5-0.1c0.1-0.1,0.2-0.2,0.2-0.3C302.8,268.4,302.8,268.4,302.8,268.4v0.1
		c0,0.1-0.1,0.2-0.2,0.3c-0.1,0.1-0.3,0.1-0.5,0.1c-0.2-0.1-0.4-0.3-0.4-0.5c0-0.3,0.2-0.5,0.5-0.5c0.1,0,0.2,0,0.3,0.1
		c0.1,0.1,0.2,0.2,0.2,0.3C302.8,268.3,302.8,268.3,302.8,268.4z"/>
	<path class="st5" d="M302.3,269c-0.1,0-0.1,0-0.2,0c-0.3-0.1-0.5-0.5-0.4-0.8c0.1-0.2,0.2-0.3,0.4-0.4c0.2-0.1,0.4,0,0.6,0.1
		c0.1,0.1,0.2,0.2,0.2,0.4v0.1v0.1c0,0.1-0.1,0.3-0.2,0.4C302.6,269,302.4,269,302.3,269z M302.3,268h-0.1c-0.2,0.1-0.3,0.2-0.3,0.4
		c0,0.2,0.1,0.3,0.3,0.4c0.1,0,0.3,0,0.4,0c0.1-0.1,0.1-0.1,0.2-0.2v-0.1l0,0l0,0v-0.1c0-0.1-0.1-0.2-0.2-0.2
		C302.5,268,302.4,268,302.3,268z"/>
	<path class="st5" d="M306.1,268.4c0,0,0,0,0-0.1s-0.1-0.2-0.2-0.3c-0.1-0.1-0.3-0.1-0.5-0.1c-0.2,0.1-0.3,0.2-0.3,0.5
		s0.2,0.5,0.5,0.5c0.1,0,0.2,0,0.3-0.1c0.1-0.1,0.2-0.2,0.2-0.3V268.4v0.1c0,0.1-0.1,0.2-0.2,0.3c-0.1,0.1-0.3,0.1-0.5,0.1
		c-0.2-0.1-0.4-0.3-0.4-0.5s0.1-0.4,0.4-0.5c0.2-0.1,0.4,0,0.5,0.1s0.2,0.2,0.2,0.3V268.4z"/>
	<path class="st5" d="M305.6,269c-0.1,0-0.1,0-0.2,0c-0.2-0.1-0.4-0.3-0.4-0.6c0-0.3,0.2-0.5,0.4-0.6c0.2-0.1,0.4,0,0.6,0.1
		c0.1,0.1,0.2,0.2,0.2,0.4v0.1v0.1c0,0.1-0.1,0.3-0.2,0.3C305.9,269,305.7,269,305.6,269z M305.6,268h-0.1c-0.2,0.1-0.3,0.2-0.3,0.4
		c0,0.2,0.1,0.3,0.3,0.4c0.1,0,0.3,0,0.4,0c0.1-0.1,0.1-0.1,0.2-0.2v-0.1l0,0l0,0v-0.1c0-0.1-0.1-0.2-0.2-0.2
		C305.8,268,305.7,268,305.6,268L305.6,268z"/>
	<path class="st5" d="M308.5,262.3c0,0.8-0.7,1.5-1.5,1.5s-1.5-0.7-1.5-1.5s0.7-1.5,1.5-1.5S308.5,261.5,308.5,262.3z"/>
	<path class="st3" d="M307.1,263.1L307.1,263.1L307.1,263.1c0-0.2,0-0.5,0-0.8s0-0.5,0.1-0.8c0,0.3,0,0.5,0,0.8
		C307.1,262.6,307.1,262.8,307.1,263.1L307.1,263.1L307.1,263.1z"/>
	<path class="st3" d="M307.9,262.4c-0.3,0-0.5,0-0.8,0s-0.5,0-0.8-0.1C306.8,262.3,307.3,262.3,307.9,262.4L307.9,262.4z"/>
	<path class="st5" d="M277.9,265.7c0,0.1-4.7,0.3-10.5,0.3s-10.5-0.1-10.5-0.3s4.7-0.3,10.5-0.3S277.9,265.6,277.9,265.7z"/>
	<path class="st1" d="M191.1,282h117.2c2.4,0,4.4,2,4.4,4.4v45.3c0,2.4-2,4.4-4.4,4.4H191.1c-2.4,0-4.4-2-4.4-4.4v-45.3
		C186.7,284,188.6,282,191.1,282z"/>
	<path class="st3" d="M190.7,282.1h60.1l0,0v54.1l0,0h-60.1c-2.2,0-4-1.8-4-4v-46.1C186.7,283.9,188.4,282.1,190.7,282.1z"/>
	<path class="st2" d="M250.9,336.6c-0.1,0-0.3-12-0.3-26.9s0.1-26.9,0.3-26.9s0.3,12,0.3,26.9S251,336.6,250.9,336.6z"/>
	<path class="st2" d="M308.3,336.2c0,0,0.3,0,0.9-0.1c0.9-0.2,1.7-0.6,2.3-1.3c0.4-0.5,0.8-1,1-1.7c0.2-0.8,0.3-1.5,0.2-2.3
		c0-1.7,0-3.7,0-5.9c0-8.9,0-21.9-0.1-37.8c0-0.5,0-1-0.1-1.5s-0.3-0.9-0.5-1.3c-0.5-0.9-1.3-1.5-2.3-1.8c-1-0.2-2-0.3-3.1-0.2h-3.3
		h-13.6h-30H191c-1.5,0-2.8,0.8-3.6,2c-0.4,0.6-0.6,1.3-0.6,2v11.2c0,5.9,0,11.8,0,17.5v16.9c0.1,1.3,0.7,2.5,1.8,3.3
		c0.5,0.4,1.1,0.6,1.8,0.7c0.6,0.1,1.3,0,2,0h8l56.1,0.1l37.8,0.1h10.3h2.7h0.9h-0.9h-2.7h-10.3l-37.8,0.1h-56.1h-8
		c-0.7,0-1.3,0-2.1,0c-2.2-0.3-3.9-2.2-4-4.4c0-5.5,0-11.2,0-16.9v-28.5c0.1-2.5,2.2-4.5,4.7-4.5h68.7h30h13.6h4.8
		c1.7,0,3.2,0.8,4.1,2.2c0.3,0.5,0.5,0.9,0.6,1.5c0.1,0.5,0.1,1,0.1,1.5c0,16-0.1,28.9-0.1,37.8c0,2.2,0,4.2,0,5.9
		c0.1,0.8,0,1.6-0.2,2.4c-0.2,0.6-0.5,1.2-1,1.7c-0.6,0.7-1.4,1.1-2.3,1.3C309,336.1,308.6,336.2,308.3,336.2z"/>
	<path class="st5" d="M278.7,294.4c0,0.1-5.2,0.3-11.5,0.3s-11.5-0.1-11.5-0.3s5.2-0.3,11.5-0.3S278.7,294.3,278.7,294.4z"/>
	<path class="st2" d="M301,301.5c0,0.1-10.2,0.3-22.8,0.3s-22.8-0.1-22.8-0.3s10.2-0.3,22.8-0.3S301,301.4,301,301.5z"/>
	<path class="st2" d="M301,305.7c0,0.1-10.2,0.3-22.8,0.3s-22.8-0.1-22.8-0.3s10.2-0.3,22.8-0.3S301,305.6,301,305.7z"/>
	<path class="st7" d="M296.2,326.3c-0.1-0.5-0.2-0.9-0.6-1.3c-0.3-0.4-0.7-0.6-1.1-0.8c-0.5-0.1-1,0-1.4,0.2
		c-0.2,0.2-0.5,0.4-0.6,0.6c-0.1-0.2-0.3-0.4-0.5-0.6c-0.4-0.3-0.9-0.4-1.4-0.3s-0.9,0.3-1.2,0.7c-0.3,0.3-0.6,0.8-0.6,1.2
		c-0.1,0.6,0,1.2,0.3,1.8c0.3,0.5,0.8,1,1.3,1.3c0.9,0.6,2.1,1.3,2.1,1.3s1-0.7,1.9-1.2c0.6-0.3,1-0.7,1.4-1.2
		C296.1,327.5,296.2,326.9,296.2,326.3z"/>
	<path class="st5" d="M292.4,330.6L292.4,330.6c-0.1,0-1.2-0.7-2.1-1.3c-0.6-0.3-1-0.8-1.4-1.4c-0.3-0.6-0.4-1.2-0.3-1.8
		c0.1-0.5,0.3-1,0.7-1.3c0.3-0.4,0.8-0.6,1.2-0.7c0.8-0.1,1.5,0.2,2,0.8c0.4-0.6,1.2-0.9,2-0.8c0.5,0.1,0.9,0.4,1.2,0.8
		c0.3,0.4,0.5,0.8,0.6,1.4l0,0c0.1,0.6-0.1,1.3-0.4,1.8c-0.4,0.5-0.9,1-1.5,1.3C293.5,329.9,292.5,330.6,292.4,330.6L292.4,330.6z
		 M290.9,324.3h-0.3c-0.4,0.1-0.8,0.3-1.1,0.6c-0.3,0.3-0.5,0.7-0.6,1.2c-0.1,0.6,0,1.2,0.3,1.7s0.8,1,1.3,1.3
		c0.8,0.5,1.7,1.1,2,1.2c0.2-0.2,1.1-0.8,1.9-1.2c0.5-0.3,1-0.7,1.4-1.2c0.3-0.5,0.4-1.1,0.4-1.6l0,0c-0.1-0.9-0.7-1.7-1.6-1.9
		c-0.4-0.1-0.9,0-1.3,0.2c-0.2,0.2-0.4,0.4-0.6,0.6l-0.1,0.2l-0.1-0.2c-0.1-0.2-0.3-0.4-0.5-0.5
		C291.6,324.4,291.2,324.3,290.9,324.3L290.9,324.3z"/>
	<path class="st5" d="M306.7,329.3h-1.5h-3.7l0,0l0,0l-0.1-0.6c-0.2-1.8-0.4-3.4-0.6-4.4l0,0h-1h1l0,0l0.6,4.4c0,0.2,0,0.4,0.1,0.6
		l0,0h3.7h1.1H306.7L306.7,329.3z"/>
	<path class="st5" d="M305.2,329.3h-3.7c0,0-0.1,0-0.1-0.1l-0.6-5h-0.9h-0.3c-0.1,0-0.2,0-0.2-0.1s0.1-0.1,0.2-0.1h1.2
		c0,0,0.1,0,0.1,0.1l0,0l0.6,4.5c0,0.1,0,0.3,0,0.4l5,0.1c0.1,0,0.2,0,0.2,0.1s-0.1,0.1-0.2,0.1H305.2L305.2,329.3z"/>
	<path class="st5" d="M301.4,328.1h1.5h3.8l0,0c0.1-0.6,0.2-1.3,0.4-2.1l0.2-1.1l0,0l-4.5-0.1h-1.3h1.3h4.5l0,0l0,0
		c-0.1,0.3-0.1,0.7-0.2,1.1c-0.1,0.7-0.3,1.4-0.4,2l0,0l0,0h-3.8h-1.1h-0.4V328.1z"/>
	<path class="st5" d="M306.7,328.3L306.7,328.3l-5.3-0.1c0,0-0.1,0-0.1-0.1l0,0h0.1h1.5h3.7l0.5-2.9l-5.8-0.1h-0.4
		c0,0-0.1,0-0.1-0.1s0-0.1,0.1-0.1h1.8h4.5h0.1c0,0,0,0,0,0.1l-0.2,1.1c-0.1,0.5-0.2,0.9-0.2,1.4l-0.1,0.7
		C306.8,328.2,306.8,328.3,306.7,328.3z"/>
	<path class="st5" d="M302.8,330.6c0,0,0,0,0-0.1s-0.1-0.2-0.2-0.3c-0.2-0.2-0.5-0.1-0.7,0.1c-0.1,0.1-0.1,0.2-0.1,0.3
		c0,0.2,0.1,0.4,0.3,0.5c0.3,0.1,0.5,0,0.6-0.3l0,0C302.8,330.7,302.8,330.6,302.8,330.6v0.1c0,0.1-0.1,0.2-0.2,0.3
		c-0.1,0.1-0.3,0.1-0.5,0.1c-0.2-0.1-0.4-0.3-0.4-0.5s0.1-0.4,0.4-0.5c0.2-0.1,0.4,0,0.5,0.1s0.2,0.2,0.2,0.3V330.6z"/>
	<path class="st5" d="M302.3,331.2c-0.1,0-0.1,0-0.2,0c-0.3-0.1-0.4-0.3-0.4-0.6c0-0.3,0.3-0.6,0.6-0.6c0.1,0,0.3,0,0.4,0.1
		s0.2,0.2,0.2,0.4v0.1v0.1c0,0.1-0.1,0.3-0.2,0.3C302.6,331.2,302.4,331.3,302.3,331.2z M302.3,330.2h-0.1c-0.2,0.1-0.3,0.2-0.3,0.4
		c0,0.2,0.1,0.3,0.3,0.4c0.1,0,0.3,0,0.4,0c0.1-0.1,0.1-0.1,0.2-0.2v-0.1l0,0l0,0v-0.1c0-0.1-0.1-0.2-0.2-0.2
		C302.5,330.3,302.4,330.2,302.3,330.2L302.3,330.2z"/>
	<path class="st5" d="M306.1,330.7c0,0,0,0,0-0.1s-0.1-0.2-0.2-0.3c-0.1-0.1-0.3-0.1-0.5-0.1c-0.3,0.1-0.4,0.4-0.3,0.6
		c0,0.1,0.2,0.2,0.3,0.3c0.2,0.1,0.3,0,0.5-0.1C306,330.9,306.1,330.8,306.1,330.7C306.2,330.7,306.2,330.7,306.1,330.7v0.1
		c0,0.1-0.1,0.2-0.2,0.3c-0.1,0.1-0.3,0.1-0.5,0.1c-0.2-0.1-0.4-0.3-0.4-0.5s0.2-0.4,0.4-0.5c0.2-0.1,0.4,0,0.5,0.1s0.2,0.2,0.2,0.3
		C306.2,330.6,306.2,330.6,306.1,330.7z"/>
	<path class="st5" d="M305.6,331.3h-0.2c-0.2-0.1-0.4-0.3-0.4-0.6c0-0.3,0.2-0.5,0.4-0.6c0.2-0.1,0.4,0,0.6,0.1
		c0.1,0.1,0.2,0.2,0.2,0.3v0.1v0.1c0,0.1-0.1,0.3-0.2,0.3C305.9,331.2,305.7,331.3,305.6,331.3z M305.6,330.3h-0.1
		c-0.2,0.1-0.3,0.2-0.3,0.4c0,0.2,0.1,0.3,0.3,0.4c0.2,0.1,0.5,0,0.6-0.3l0,0v-0.1l0,0l0,0v-0.1c0-0.1-0.1-0.2-0.2-0.2
		C305.8,330.3,305.7,330.3,305.6,330.3L305.6,330.3z"/>
	<path class="st5" d="M308.5,324.5c0,0.8-0.7,1.5-1.5,1.5s-1.5-0.7-1.5-1.5s0.7-1.5,1.5-1.5S308.5,323.7,308.5,324.5L308.5,324.5z"
		/>
	<path class="st3" d="M307.1,325.3L307.1,325.3L307.1,325.3c0-0.2,0-0.5,0-0.8s0-0.5,0.1-0.8c0,0.3,0,0.5,0,0.8
		C307.1,324.8,307.1,325.1,307.1,325.3L307.1,325.3L307.1,325.3z"/>
	<path class="st3" d="M307.9,324.6c-0.3,0-0.5,0-0.8,0s-0.5,0-0.8-0.1c0.3,0,0.5,0,0.8,0C307.3,324.6,307.6,324.6,307.9,324.6z"/>
	<path class="st5" d="M277.9,328c-3.5,0.3-7,0.4-10.5,0.3c-3.5,0.1-7,0-10.5-0.3c0-0.1,4.7-0.3,10.5-0.3S277.9,327.8,277.9,328z"/>
	<path class="st5" d="M203.1,171.5c0,0-8,18.4-7.6,28.4l20.7,6.2l3.5-6.7l3,6.7c0,0,16-3.9,20.4-7.8c0,0-4.2-21.5-7.6-26.7
		c0,0,2.1-4.3,0.5-4.6s-4.2,0.2-6.2,0s-2.6,0.3-5-0.1s-2.2,2.7-5.1,2s-2.9-1.3-6-2.1s-4.8,1.6-6.7,1c-1.4-0.4-2.8-0.7-4.2-0.9
		c-1.1-0.2-2.2,0.5-2.4,1.6c-0.1,0.4,0,0.8,0.4,1h0.1C201.9,169.9,202.7,170.6,203.1,171.5z"/>
	<path class="st5" d="M231.3,167.3c0.1,0.8,0,1.6-0.4,2.4c-0.3,0.8-0.8,1.4-1.5,1.9c0.5-0.6,0.9-1.3,1.2-2
		C230.9,168.8,231.1,168.1,231.3,167.3z"/>
	<path class="st4" d="M219.5,181.2c-0.1-0.1-0.2-0.2-0.3-0.4l-0.9-1l-3-3.6h0.2l-4,5V181l0.1,0.1l3.9,5.1h-0.2l3-3.7
		c0.4-0.4,0.6-0.8,0.9-1C219.3,181.5,219.4,181.4,219.5,181.2c0,0.2-0.1,0.3-0.2,0.4l-0.8,1.1l-2.9,3.8l-0.1,0.1l-0.1-0.1l-4-5.1
		l-0.1-0.1l-0.1-0.1l0.1-0.1l4.1-5l0.1-0.1l0.1,0.1l2.9,3.7l0.8,1C219.4,181,219.5,181.1,219.5,181.2z"/>
	<path class="st4" d="M234.7,178.1c-0.1-0.1-0.2-0.2-0.3-0.4l-0.9-1l-3-3.6h0.2l-4,5V178l0.1,0.1l3.9,5.1h-0.2l3-3.7l0.9-1
		C234.5,178.4,234.6,178.3,234.7,178.1c0,0.2-0.1,0.3-0.2,0.4l-0.8,1.1l-2.9,3.9l-0.1,0.1l-0.1-0.1l-4-5.1l-0.1-0.1l-0.1-0.1
		l0.1-0.1l4.1-5l0.1-0.1l0.1,0.1l2.9,3.7l0.8,1C234.5,177.8,234.6,177.9,234.7,178.1z"/>
	<path class="st4" d="M223.5,167.3c0.9,1,1.8,2,2.6,3.1h-0.2l0,0l0,0l0.1-0.1l0.1-0.2l0.2-0.3l0.5-0.6l0.8-1
		c0.2-0.3,0.5-0.6,0.8-0.9c-0.2,0.4-0.4,0.7-0.6,1l-0.8,1c-0.1,0.2-0.3,0.4-0.4,0.6l-0.2,0.3l-0.1,0.2l-0.1,0.1l0,0l0,0H226
		C225,169.5,224.2,168.4,223.5,167.3z"/>
	<path class="st4" d="M208.7,171.5c-0.3-0.3-0.6-0.6-0.9-0.9c-0.5-0.6-1.2-1.4-1.9-2.3l-0.2-0.2h0.2c-0.6,1-1.1,1.8-1.5,2.4
		c-0.2,0.3-0.4,0.7-0.7,0.9c0.1-0.4,0.3-0.7,0.5-1c0.3-0.6,0.8-1.5,1.4-2.5l0.1-0.2l0.1,0.2l0.2,0.2c0.7,0.9,1.4,1.8,1.8,2.4
		C208.3,170.9,208.5,171.2,208.7,171.5z"/>
	<path class="st4" d="M229.7,194c-0.1-0.1-0.2-0.2-0.3-0.4l-0.9-1l-2.9-3.6h0.2c-1.2,1.5-2.6,3.2-4,5v-0.2l0.1,0.1l3.9,5.1h-0.2
		c1.2-1.5,2.2-2.8,3-3.7l0.9-1C229.5,194.3,229.6,194.2,229.7,194c0,0.2-0.1,0.3-0.2,0.4l-0.8,1.1l-2.9,3.8l-0.1,0.1l-0.1-0.1
		c-1.1-1.5-2.5-3.2-4-5.1l-0.1-0.1l-0.1-0.1l0.1-0.1c1.5-1.8,2.9-3.5,4.1-5l0.1-0.1l0.1,0.1l2.9,3.7l0.8,1
		C229.5,193.8,229.6,193.9,229.7,194z"/>
	<path class="st4" d="M211.9,198.2c-0.1-0.1-0.2-0.2-0.3-0.4l-0.9-1l-3-3.6h0.2l-4,5V198l0.1,0.1l3.9,5.1h-0.2l3-3.7l0.9-1
		C211.7,198.5,211.8,198.3,211.9,198.2c0,0.2-0.1,0.3-0.2,0.4l-0.8,1.1l-2.9,3.8l-0.1,0.1l-0.1-0.1l-4-5.1l-0.1-0.1l-0.1-0.1
		l0.1-0.1l4.1-5l0.1-0.1l0.1,0.1l2.9,3.7l0.8,1C211.8,197.9,211.8,198.1,211.9,198.2z"/>
	<path class="st4" d="M197,189.3c0.1-0.1,0.3-0.3,0.4-0.4l1.2-1c1-0.8,2.4-1.9,4-3.1l0.6-0.4v0.2c-0.9-1.6-1.6-3-2.1-4
		c-0.3-0.5-0.6-1.1-0.8-1.7c0.4,0.5,0.7,1,1,1.6c0.6,1,1.4,2.4,2.2,4l0.1,0.1l-0.1,0.1l-0.6,0.4c-1.6,1.2-3,2.3-4.1,3
		c-0.5,0.4-1,0.7-1.2,0.9C197.4,189.1,197.2,189.2,197,189.3z"/>
	<path class="st4" d="M242.1,193.4c-0.2-0.1-0.3-0.2-0.4-0.4c-0.3-0.2-0.7-0.6-1.1-1c-0.9-0.9-2.2-2.1-3.7-3.4l-0.1-0.1v-0.1l0,0
		c0.6-1.9,1.2-3.5,1.7-4.7c0.2-0.6,0.4-1.1,0.5-1.4c0.1-0.2,0.1-0.3,0.2-0.5c0,0.2-0.1,0.4-0.1,0.5c-0.1,0.4-0.3,0.8-0.5,1.4
		c-0.4,1.2-1,2.9-1.6,4.8l0,0v-0.1c1.4,1.4,2.7,2.6,3.6,3.5c0.4,0.4,0.8,0.8,1.1,1.1C241.8,193.1,242,193.2,242.1,193.4z"/>
	<path class="st5" d="M235.7,171.4c-0.1,0-0.2,0.1-0.3,0.1c-0.2,0-0.5,0.1-0.9,0.2c-1.2,0.2-2.3,0.2-3.5,0.1
		c-1.5-0.1-3.2-0.2-5.2-0.5c-2.1-0.3-4.2-0.5-6.3-0.5c-2.2,0-4.4,0.2-6.3,0.4s-3.7,0.4-5.2,0.4c-1.2,0-2.3,0-3.5-0.1
		c-0.4,0-0.7-0.1-0.9-0.1c-0.1,0-0.2,0-0.3-0.1h0.3c0.2,0,0.5,0.1,0.9,0.1c1.2,0.1,2.3,0.1,3.5,0c1.5-0.1,3.2-0.2,5.2-0.4
		s4.1-0.4,6.4-0.5c2.1,0,4.2,0.2,6.4,0.5c1.9,0.3,3.7,0.5,5.1,0.6c1.2,0.1,2.3,0.1,3.5-0.1C235.3,171.5,235.7,171.4,235.7,171.4z"/>
	<path class="st5" d="M205.6,186.4c0-0.2,0-0.4,0-0.6c0-0.4,0.1-0.9,0.2-1.6c0.2-1.8,0.5-3.5,0.9-5.3c0.4-2,1-3.9,1.4-5.2
		c0.2-0.6,0.4-1.2,0.5-1.5c0.1-0.2,0.1-0.4,0.2-0.6c0,0.2-0.1,0.4-0.1,0.6c-0.1,0.4-0.3,1-0.4,1.6c-0.4,1.3-0.9,3.1-1.3,5.2
		s-0.8,3.9-1,5.3c-0.1,0.6-0.2,1.2-0.2,1.6C205.7,186,205.6,186.2,205.6,186.4z"/>
	<path class="st5" d="M208.5,180.9c0.1-1.6,0.3-3.1,0.6-4.6c0.2-1.5,0.5-3.1,0.9-4.6c-0.1,1.6-0.3,3.1-0.6,4.6
		C209.2,177.8,208.9,179.3,208.5,180.9z"/>
	<path class="st6" d="M233.1,194.5c-0.2-0.3-0.3-0.5-0.4-0.8c-0.2-0.6-0.6-1.4-0.9-2.4c-1.9-5.2-3-10.7-3.3-16.3
		c-0.1-1.1-0.1-1.9-0.1-2.5c0-0.3,0-0.6,0-0.9c0.1,0.3,0.1,0.6,0.1,0.9c0,0.6,0.1,1.4,0.2,2.5c0.2,2.8,0.6,5.5,1.1,8.2
		c0.6,2.7,1.3,5.4,2.1,8c0.3,1,0.6,1.8,0.8,2.4C232.9,193.9,233,194.2,233.1,194.5z"/>
	<path class="st6" d="M232.4,180.1c-0.2-0.4-0.4-0.8-0.5-1.2c-0.2-0.7-0.6-1.8-0.8-2.9s-0.5-2.2-0.7-2.9c-0.1-0.4-0.2-0.8-0.2-1.2
		c0.2,0.4,0.3,0.8,0.4,1.2c0.2,0.9,0.5,1.8,0.7,2.9s0.5,2.1,0.8,2.9C232.3,179.3,232.4,179.7,232.4,180.1z"/>
	<path class="st6" d="M217.4,204.1c0,0-0.1,0-0.2,0s-0.4-0.1-0.7-0.1c-0.8-0.2-1.6-0.4-2.4-0.7c-2.6-1-5.1-2.1-7.5-3.4
		c-2.4-1.3-5-2.2-7.7-2.8c-0.8-0.2-1.6-0.3-2.5-0.3c-0.6,0-0.9,0-0.9-0.1h0.2c0.1,0,0.4,0,0.7,0c0.8,0,1.7,0.1,2.5,0.2
		c2.7,0.5,5.3,1.5,7.8,2.7c2.9,1.4,5.5,2.7,7.5,3.4c0.8,0.3,1.6,0.5,2.4,0.8C216.8,203.9,217.1,204,217.4,204.1z"/>
	<path class="st6" d="M242.6,195.5c-0.2,0.2-0.5,0.3-0.7,0.5c-0.5,0.3-1.2,0.7-2.1,1.2c-2.3,1.3-4.7,2.4-7.1,3.4
		c-2.4,1-4.9,1.8-7.5,2.5c-1,0.3-1.8,0.5-2.3,0.6c-0.3,0.1-0.6,0.1-0.9,0.1c0.3-0.1,0.6-0.2,0.8-0.3c0.5-0.1,1.3-0.4,2.3-0.7
		c1.9-0.6,4.6-1.4,7.4-2.6s5.4-2.4,7.1-3.3l2.1-1.1C242,195.7,242.3,195.6,242.6,195.5z"/>
	<path class="st5" d="M233.1,169.1c-0.1,0.6-0.4,1.1-0.9,1.5c-0.4,0.5-0.8,0.8-1.4,1c-0.1-0.1,0.6-0.5,1.1-1.2
		S233,169.1,233.1,169.1z"/>
	<path class="st5" d="M210.5,167.6c0.1,0,0.1,0.9,0.5,1.9s0.9,1.7,0.8,1.8c-0.5-0.4-0.9-1-1.1-1.7
		C210.4,168.9,210.4,168.3,210.5,167.6z"/>
	<path class="st5" d="M209,304.2h26c1.4,0,2.5,1.1,2.5,2.5v15.7c0,1.4-1.1,2.5-2.5,2.5h-26c-1.4,0-2.5-1.1-2.5-2.5v-15.7
		C206.5,305.3,207.7,304.2,209,304.2z"/>
	<path class="st5" d="M229.1,308c0-0.1,0-0.3,0-0.4l0.1-1.1c0.1-1.4,0.1-2.8,0-4.1c-0.2-2-1-4-2.4-5.5c-0.8-0.9-1.9-1.4-3.1-1.7
		c-1.3-0.3-2.6-0.4-3.9-0.3c-2.6,0-5.2,0.5-7,2c-0.8,0.7-1.5,1.6-1.9,2.6c-0.4,0.9-0.6,1.8-0.7,2.7c-0.1,1.4-0.1,2.8,0,4.1
		c0,0.5,0.1,0.8,0.1,1.1c0,0.1,0,0.3,0,0.4c0-0.1-0.1-0.3-0.1-0.4c0-0.2-0.1-0.6-0.2-1.1c-0.2-1.4-0.2-2.8-0.1-4.2
		c0.1-1,0.3-1.9,0.7-2.8c0.4-1,1.1-2,2-2.7c1-0.8,2.1-1.3,3.3-1.6c1.3-0.3,2.6-0.5,3.9-0.5c1.3,0,2.6,0.1,3.9,0.3
		c1.2,0.3,2.4,0.9,3.2,1.8c1.4,1.6,2.2,3.6,2.4,5.7c0.1,1.4,0.1,2.8-0.1,4.2c0,0.5-0.1,0.9-0.1,1.1
		C229.2,307.7,229.1,307.9,229.1,308z"/>
	<path class="st6" d="M205.1,304.1h26c1.4,0,2.5,1.1,2.5,2.5v15.7c0,1.4-1.1,2.5-2.5,2.5h-26c-1.4,0-2.5-1.1-2.5-2.5v-15.7
		C202.6,305.2,203.7,304.1,205.1,304.1z"/>
	<path class="st5" d="M231.1,324.7c0.3,0,0.7-0.1,1-0.2c0.4-0.2,0.7-0.4,0.9-0.7c0.3-0.4,0.5-1,0.5-1.5c0-2.5-0.1-6.1-0.1-10.6
		c0-1.1,0-2.3,0-3.5c0-0.6,0-1.2,0-1.9c-0.1-0.6-0.4-1.2-0.9-1.6s-1.1-0.6-1.8-0.5h-2.1h-4.3H205c-0.8,0-1.6,0.4-2,1.1
		c-0.2,0.3-0.3,0.7-0.3,1.1v6.2c0,3.2,0,6.3,0,9.3c0,0.3,0,0.7,0.1,1s0.3,0.6,0.5,0.9c0.5,0.5,1.1,0.8,1.8,0.8h11.4h10.8h2.9h0.8
		c0.1,0,0.2,0,0.3,0H231h-0.8h-2.9l-10.6,0.1h-7.4h-4.1c-1.2,0-2.2-0.7-2.6-1.9c-0.1-0.4-0.2-0.8-0.1-1.1c0-3,0-6.1,0-9.3
		c0-1.6,0-3.2,0-4.9c0-0.4,0-0.8,0-1.3s0.1-0.9,0.4-1.3c0.5-0.8,1.3-1.3,2.3-1.3h25.7c0.7-0.1,1.4,0.1,2,0.6c0.6,0.4,0.9,1.1,1,1.8
		c0,0.7,0,1.3,0,1.9v3.5c0,4.5,0,8.1,0,10.6c0,0.6-0.2,1.1-0.6,1.6c-0.3,0.3-0.6,0.6-1,0.7C232,324.5,231.6,324.7,231.1,324.7z"/>
	<path class="st5" d="M233.2,314.5c0,0.1-6.8,0.3-15.2,0.3s-15.2-0.1-15.2-0.3s6.8-0.3,15.2-0.3S233.2,314.4,233.2,314.5z"/>
	<path class="st2" d="M218.1,317.1c-0.3-1.6-0.3-3.3,0-4.9C218.4,313.8,218.4,315.5,218.1,317.1z"/>
	<path class="st7" d="M194.9,253.4c0,0,7.8-21.2,9.7-22.5s9.9-3.5,9.9-3.5l5.9,19.6l7.1-19.9c0,0,7.5,2.3,9.6,5.6s7.7,20.8,7.7,20.8
		L233,258l1.5,7.1l-29.8-0.4l1.8-6.1L194.9,253.4z"/>
	<g class="st9">
		<path d="M211.1,240.5c-2-3.4-3.1-7.2-3-11.2l-3,1.1c0.2,4,1.4,7.9,3.5,11.2c0.3,0.5,0.7,1,1.2,1.3s1.2,0.2,1.7-0.2
			C212,242.2,211.5,241.3,211.1,240.5z"/>
	</g>
	<g class="st9">
		<path d="M214.8,252.1c-0.2-0.4-0.6-0.6-1-0.7l0,0c-1-0.1-1.9,0.6-2,1.5c-0.1,1,0.6,1.9,1.5,2c0.2,0,0.3,0,0.5,0
			c0.3,0,0.6-0.2,0.9-0.5c0.2-0.3,0.3-0.6,0.3-0.9C215.1,253.1,215,252.6,214.8,252.1z"/>
	</g>
	<g class="st9">
		<path d="M233.2,259.3c-1.1,1.3-2.5,2.3-4,3c-1.6,0.8-3.4,0.8-5,0c-0.7-0.4-1.4-1-2.1-0.9c-0.6,0.1-1.1,0.5-1.7,0.3
			c-0.3-0.1-0.5-0.4-0.6-0.8c-0.1-0.7,0.3-1.3,0.9-1.6c0.6-0.3,1.3-0.4,1.9-0.3c0.6,0.1,1.3,0.3,1.9,0.4c2.6,0.4,5.8-1.7,7.7-3.8
			l1.4-1.6l-0.7,3.9L233.2,259.3z"/>
	</g>
	<path class="st5" d="M235.1,247.9c-0.2,1.7-0.5,3.4-0.9,5.1c-0.3,1.7-0.7,3.4-1.2,5c0.2-1.7,0.5-3.4,0.9-5.1
		C234.2,251.2,234.6,249.5,235.1,247.9z"/>
	<path class="st3" d="M234.7,230.6c0,0.2,0,0.3-0.1,0.5c-0.1,0.5-0.3,0.9-0.5,1.3c-0.8,1.4-1.9,2.5-3.3,3.3c-1.4,0.7-3,1-4.6,0.9
		c-0.5,0-0.9-0.1-1.4-0.3c-0.2,0-0.3-0.1-0.5-0.2c0,0,0.7,0.2,1.9,0.3c1.5,0.1,3.1-0.2,4.4-0.9c1.4-0.7,2.5-1.8,3.3-3.1
		C234.4,231.3,234.6,230.6,234.7,230.6z"/>
	<path class="st3" d="M236.9,232.6c0,0.2-0.1,0.4-0.2,0.6c-0.3,0.5-0.6,1-0.9,1.4c-2.4,3-6.2,4.5-10,3.8c-0.6-0.1-1.1-0.3-1.6-0.4
		c-0.2-0.1-0.4-0.2-0.6-0.3c0-0.1,0.8,0.3,2.2,0.5c3.7,0.6,7.4-0.8,9.8-3.7C236.1,233.9,236.5,233.2,236.9,232.6z"/>
	<path class="st3" d="M219.3,244.8c-0.2,0.1-0.4,0.2-0.6,0.3c-0.4,0.1-1,0.4-1.7,0.7c-1.8,0.8-3.6,1.8-5.2,2.9
		c-1.6,1.1-3.2,2.4-4.6,3.9c-0.5,0.6-0.9,1-1.2,1.3c-0.1,0.2-0.3,0.3-0.5,0.5c0.1-0.2,0.2-0.4,0.4-0.6c0.3-0.4,0.7-0.8,1.2-1.4
		c1.4-1.5,2.9-2.8,4.5-4c1.7-1.1,3.4-2.1,5.3-2.8c0.6-0.2,1.1-0.4,1.7-0.6C218.9,244.8,219.1,244.8,219.3,244.8z"/>
	<path class="st3" d="M218.9,242.6c-0.2,0.1-0.4,0.2-0.6,0.2c-0.4,0.1-1,0.3-1.7,0.5c-1.8,0.6-3.6,1.3-5.4,2.2
		c-1.7,0.8-3.4,1.8-5.1,2.9c-0.6,0.4-1.1,0.7-1.5,1c-0.2,0.1-0.4,0.2-0.6,0.3c0.1-0.2,0.3-0.3,0.5-0.4c0.3-0.3,0.8-0.6,1.4-1.1
		c1.6-1.1,3.3-2.1,5.1-2.9c1.8-0.8,3.6-1.6,5.5-2.1c0.7-0.2,1.3-0.4,1.7-0.4C218.5,242.6,218.7,242.6,218.9,242.6z"/>
	<path class="st3" d="M240.3,254.8c-0.9-0.8-1.8-1.5-2.7-2.1c-1-0.6-2-1.1-3.1-1.5c0.3,0,0.7,0.1,1,0.2c0.8,0.2,1.5,0.6,2.2,1
		s1.4,1,1.9,1.6C239.9,254.2,240.1,254.5,240.3,254.8z"/>
	<path class="st3" d="M199.2,254.8c-0.6-1-1.1-2-1.5-3.2c-0.4-1.1-0.7-2.2-0.8-3.4c0.1,0,0.5,1.5,1.1,3.3S199.2,254.8,199.2,254.8z"
		/>
	<path class="st3" d="M211.6,264.9c-1.1-0.4-2.1-0.8-3.1-1.4c-1-0.5-2-1.2-2.8-1.9c0-0.1,1.3,0.8,3,1.7S211.6,264.8,211.6,264.9z"/>
	<path class="st5" d="M219.3,251c-0.1-0.3-0.3-0.6-0.4-0.9c-0.2-0.6-0.5-1.4-0.9-2.4c-0.7-2-1.7-4.9-2.7-8s-1.9-6-2.5-8.1
		c-0.3-1-0.5-1.9-0.7-2.5c-0.1-0.3-0.2-0.6-0.2-0.9c0.1,0.3,0.2,0.6,0.3,0.9c0.2,0.6,0.5,1.4,0.8,2.4c0.7,2.1,1.6,4.9,2.6,8.1
		s1.9,5.9,2.6,8c0.3,1,0.6,1.8,0.8,2.4C219.2,250.4,219.2,250.7,219.3,251z"/>
	<path class="st5" d="M221.8,251.1c-0.4,0.1-0.8,0.2-1.3,0.1c-0.4,0.1-0.9,0-1.3-0.1C220.1,250.9,221,250.9,221.8,251.1L221.8,251.1
		z"/>
	<path class="st5" d="M229.3,227.7c0.1-0.4-1.4,4.9-3.5,11.5s-3.8,11.9-3.9,11.9s1.6-5.4,3.6-12S229.3,227.7,229.3,227.7z"/>
	<path class="st5" d="M206.4,258.6c-0.1,0-0.7-2.5-1.5-5.7c-0.5-1.9-0.9-3.8-1.2-5.8c0.1,0,0.7,2.5,1.5,5.7S206.5,258.6,206.4,258.6
		z"/>
	<path d="M240.5,75.3l-2,6.1H237l-1.3-4.1l-1.4,4.1h-1.5l-2-6.1h1.5l1.4,4.2l1.4-4.2h1.3l1.4,4.3l1.4-4.3H240.5z"/>
	<path d="M241.3,75.3h1.4v6.1h-1.4V75.3z"/>
	<path d="M243.6,80.8l0.5-1c0.6,0.4,1.3,0.6,2,0.6c0.8,0,1.2-0.3,1.2-0.7c0-1.1-3.5-0.3-3.5-2.6c0-1,0.8-1.9,2.6-1.9
		c0.7,0,1.5,0.2,2.1,0.5l-0.4,1.1c-0.5-0.3-1.1-0.5-1.7-0.5c-0.8,0-1.1,0.3-1.1,0.7c0,1.1,3.5,0.3,3.5,2.6c0,1-0.8,1.9-2.6,1.9
		C245.2,81.6,244.4,81.3,243.6,80.8z"/>
	<path d="M255.2,75.3v6.1h-1.4v-2.5h-2.7v2.5h-1.4v-6.1h1.4v2.4h2.7v-2.4H255.2z"/>
	<path d="M257.6,75.3h0.7l-1.1,5.5h3.4l-0.1,0.6h-4L257.6,75.3z"/>
	<path d="M262.7,75.3h0.6l-1.2,6.1h-0.6L262.7,75.3z"/>
	<path d="M263.7,80.7l0.3-0.5c0.5,0.5,1.2,0.7,1.9,0.7c1.1,0,1.8-0.4,1.8-1.2c0-1.4-3.1-0.7-3.1-2.6c0-1.1,1-1.8,2.4-1.8
		c0.7,0,1.3,0.2,1.9,0.5l-0.3,0.5c-0.5-0.3-1.1-0.5-1.6-0.5c-1,0-1.8,0.5-1.8,1.2c0,1.4,3.1,0.7,3.1,2.6c0,1.2-1,1.8-2.5,1.8
		C265.1,81.5,264.3,81.2,263.7,80.7z"/>
	<path d="M271.6,75.9h-2.1l0.1-0.6h4.9l-0.1,0.6h-2.1l-1.1,5.5h-0.6L271.6,75.9z"/>
	<path class="st5" d="M312,74c0,0.1-2.9,0.2-6.5,0.2s-6.5,0-6.5-0.1s2.9-0.2,6.5-0.2S312,73.9,312,74z"/>
	<path class="st5" d="M312.1,77.3c0,0.1-2.9,0.2-6.5,0.2s-6.5,0-6.5-0.1s2.9-0.2,6.5-0.2S312.1,77.2,312.1,77.3z"/>
	<path class="st5" d="M312.1,80.7c0,0.1-2.9,0.2-6.5,0.2c-2.2,0.1-4.3,0-6.5-0.1c0-0.1,2.9-0.2,6.5-0.2
		C307.7,80.5,309.9,80.5,312.1,80.7z"/>
</g>
<g id="freepik--Character--inject-25">
	<polygon class="st7" points="100.5,448.3 96,481.6 78,479.6 82.4,446.2 	"/>
	<path class="st5" d="M87.2,479.4c-0.2,0,0.8-7.3,2.1-16.3s2.5-16.2,2.7-16.2s-0.8,7.3-2.1,16.3S87.4,479.4,87.2,479.4z"/>
	<polygon class="st5" points="96.3,479.4 78.3,477.2 78,479.6 96,481.6 	"/>
	<path class="st5" d="M79.4,468.9c0.1-0.2,0.3-0.5,0.6-0.7c0.6-0.6,1.2-1.1,1.8-1.5c1-0.7,2.1-1.2,3.2-1.6c4-1.3,8.5,0.2,10.9,3.6
		c0.4,0.7,0.8,1.4,1,2.1c0.1,0.3,0.2,0.6,0.2,0.9c-0.4-1-1-1.9-1.5-2.8c-1.5-2-3.8-3.3-6.3-3.7c-2.5-0.3-5.1,0.3-7.2,1.7
		C80.3,468.1,79.4,469,79.4,468.9z"/>
	<g class="st9">
		<polygon points="98.8,461.8 98.3,464.7 80.1,463.1 80.5,460.1 		"/>
	</g>
	<polygon class="st7" points="158.2,450.5 156.2,484.1 138,483.4 140,449.7 	"/>
	<path class="st5" d="M147.3,482.5c-0.2,0,0.3-7.4,0.9-16.4s1.3-16.4,1.5-16.4s-0.3,7.4-0.9,16.4S147.4,482.5,147.3,482.5z"/>
	<polygon class="st5" points="156.3,481.8 138.2,481 138,483.4 156.2,484.1 	"/>
	<path class="st5" d="M138.7,472.6c0,0,0.1-0.3,0.5-0.7c0.5-0.6,1.1-1.1,1.7-1.6c0.9-0.7,2-1.3,3.1-1.8c1.4-0.6,2.8-0.8,4.3-0.7
		c2.7,0.2,5.2,1.4,6.9,3.5c0.5,0.6,0.9,1.3,1.2,2c0.1,0.3,0.2,0.5,0.2,0.8c-0.5-0.9-1.1-1.8-1.7-2.6c-1.7-1.9-4.1-3.1-6.6-3.2
		s-5,0.7-7.1,2.2C139.5,471.7,138.7,472.7,138.7,472.6z"/>
	<g class="st9">
		<polygon points="157.5,464.1 157.2,467.1 139,466.8 139.2,463.8 		"/>
	</g>
	<path class="st5" d="M90.4,293.7c-0.5,0-2.2,22.1-1.7,29.5s0.8,64.1,0.8,64.1s-3.8,2.6-3.8,6s-6.9,66.2-6.9,66.2l20.7,3.4
		c0,0,18.8-68.4,19.3-77.8s13.8-74.4,13.8-74.4s4.3,61.5,4.3,70.9s-0.2,82.2-0.2,82.2s15.3,2.2,22.7,0.4c0,0,6.3-54.7,6.3-72.8
		v-29.2c0,0,7.3-34,10.7-51.2s0-33.6,0-33.6l-61.9-8.1L90.4,293.7z"/>
	<path class="st6" d="M106.3,392.2c-2.6-0.7-5.2-0.9-7.9-0.8c-2.6,0.3-5.2,1.1-7.6,2.2c0.6-0.5,1.3-0.9,2-1.2
		c3.5-1.6,7.5-1.9,11.2-1C104.8,391.5,105.6,391.8,106.3,392.2z"/>
	<path class="st6" d="M107.5,386.9c-1.9,0.2-3.9,0.2-5.8,0.1c-2,0-3.9-0.1-5.8-0.5c1.9-0.2,3.9-0.2,5.8-0.1
		C103.7,386.4,105.6,386.6,107.5,386.9z"/>
	<path class="st6" d="M149.9,399.7c0,0-0.2-0.2-0.6-0.5c-0.5-0.5-1-1-1.4-1.6c-3-3.7-4.7-8.3-5-13.1c0-0.7,0-1.4,0-2.1
		c0-0.3,0-0.5,0.1-0.8c0.1,0,0.1,1.1,0.2,2.9c0.5,4.7,2.2,9.1,4.9,12.9C149.2,398.9,150,399.7,149.9,399.7z"/>
	<path class="st6" d="M133.2,308.2c-0.1,0.3-0.3,0.6-0.5,0.8l-0.8,0.8c-0.4,0.3-0.8,0.6-1.2,0.9c-2.4,1.6-5.1,2.8-7.9,3.5
		c-2.8,0.8-5.7,1.1-8.6,0.7c-0.3,0-0.5-0.1-0.8-0.1l-0.7-0.2c-0.4-0.1-0.7-0.2-1.1-0.4c-0.3-0.1-0.6-0.3-0.8-0.5
		c1.1,0.4,2.3,0.7,3.4,0.9c2.8,0.2,5.7,0,8.4-0.9c2.8-0.7,5.4-1.8,7.9-3.3c0.4-0.3,0.9-0.6,1.2-0.8l0.9-0.7
		C132.7,308.7,132.9,308.4,133.2,308.2z"/>
	<path class="st10" d="M208.3,136.2c0-3,0.7-5.9,1.9-8.6c2.1-4.2,8.3-11.2,8.3-11.2s8.6-6.7,9.5-6.3s1.2,1.5,0,2.5s-5.8,6.4-5.8,6.4
		s1.9,0.7,1.9,2.1c0.1,0.7-0.1,1.4-0.4,2c0,0,1.8,0.9,2.2,1.9c0.3,0.6,0.4,1.3,0.4,1.9c0.7,0.2,1.2,0.8,1.2,1.5
		c0.1,0.8,0,1.7-0.1,2.5c0,0-3.3,3.7-4.6,4.2s-3.1,1-3.1,1l-1.2,1.6v4.3L208.3,136.2z"/>
	<path class="st6" d="M76.2,169.3c0,0-31.2,55.1-31.3,63.7c-0.2,15.4,43.4,27.8,43.4,27.8l6.2-17.5l-22.2-15.4l16.2-35.1L76.2,169.3
		z"/>
	<path class="st6" d="M76.2,169.3c4.1-3.1,8.9-5.1,14-5.8c8.5-1,23.7-1.3,23.7-1.3s41.2-9,44.3-7.2s7.2,12.9,8,18
		s-3.5,54.2-3.5,54.2s18.4,57,17.1,58.8c-0.6,0.9-22.9,8.7-45.3,10.4l-1.2-16.7l-2.6,15.5c-20.9,1.6-44.6,2.3-44.6,2.3
		s16.3-56.5,15.8-58.1S74,174.8,76.2,169.3z"/>
	<path class="st6" d="M158.2,155c0,0,15.1,8.6,16.9,8.4s3.6-3.2,5.9-0.8l13.3-2.4l13.3-24.2c4.9,1.9,9.4,4.6,13.3,8.1
		c0,0-7.4,25.2-11.9,29s-22.1,16.9-46.6,17.1l-3-20.1L158.2,155z"/>
	<path class="st5" d="M174,184.6c-0.1-0.1,0.6-1.1,1.5-3c0.5-1.1,0.9-2.2,1.2-3.4c0.4-1.4,0.6-2.9,0.7-4.3c0.1-1.5,0.1-2.9-0.1-4.4
		c-0.1-1.2-0.4-2.4-0.7-3.5c-0.6-2-1.1-3.1-1-3.2c0.2,0.2,0.3,0.5,0.5,0.8c0.4,0.7,0.7,1.5,0.9,2.3c0.4,1.2,0.6,2.4,0.8,3.6
		c0.2,1.5,0.2,3,0.1,4.5c-0.1,1.5-0.4,3-0.8,4.4c-0.3,1.2-0.8,2.3-1.3,3.4c-0.4,0.7-0.8,1.5-1.3,2.1
		C174.2,184.4,174,184.6,174,184.6z"/>
	<path class="st5" d="M199.8,165.4c-2.4-1.1-4.4-2.9-5.8-5.2c1,0.8,1.9,1.7,2.8,2.6C197.9,163.6,198.9,164.5,199.8,165.4z"/>
	<path class="st10" d="M88.6,259.7c0,0,0.6,2.2,4.2-0.3c0,0,5-1,7.6-3.5s3-4,4.8-4.1s7-0.9,7.1-0.8s1.4-2.9-0.2-3.5
		s-8.9,0.2-8.9,0.2l-2.1,0.1l-0.4-2.9l0.4-2.6c0,0-4.4,1.7-4.3,2.9c0,0-3.1-0.9-3.6,1.2L88.6,259.7z"/>
	<path class="st5" d="M91.1,213.1c-0.2-0.3-0.4-0.7-0.6-1.1c-0.3-0.7-0.8-1.7-1.3-3c-1.1-2.5-2.5-6.1-4-10s-2.6-7.6-3.3-10.3
		c-0.4-1.3-0.7-2.4-0.8-3.2c-0.1-0.4-0.2-0.8-0.2-1.2c0.2,0.4,0.3,0.7,0.4,1.1l1,3.1c0.8,2.6,2,6.2,3.5,10.2s2.8,7.5,3.8,10.1l1.2,3
		C90.8,212.3,91,212.7,91.1,213.1z"/>
	<path class="st5" d="M142,241.8c-0.2,0.4-0.4,0.9-0.7,1.3c-0.5,0.8-1.3,1.9-2.3,3.2c-2.7,3.5-5.7,6.6-9.1,9.4
		c-3.4,2.8-7.1,5.2-11,7.1c-1.5,0.7-2.8,1.3-3.6,1.6c-0.4,0.2-0.9,0.4-1.4,0.5c0.4-0.3,0.8-0.5,1.3-0.7c0.8-0.4,2.1-1,3.5-1.8
		c7.7-4.1,14.5-9.6,19.9-16.4c1-1.3,1.9-2.4,2.4-3.1C141.4,242.5,141.7,242.2,142,241.8z"/>
	<path class="st5" d="M73.5,227.8c0,0.1-2.4,0.6-5.1,1.7s-4.9,2.3-5,2.1c1.4-1.2,3.1-2,4.8-2.6C69.9,228.3,71.7,227.9,73.5,227.8z"
		/>
	<g class="st9">
		<path d="M85.4,199.2c-3.4-1.4-6.4-5.5-7.1-9.1s0.7-7.3,1.2-10.9C81.1,186,83,192.7,85.4,199.2"/>
	</g>
	<g class="st9">
		<path d="M117.1,268.1c10.8,3.7,22.5-2.1,26.2-12.8c0.3-1,0.6-1.9,0.8-2.9C135.8,257.9,126.1,264,117.1,268.1z"/>
	</g>
	<path class="st5" d="M165.6,166.4c0.1,0.3,0.2,0.7,0.3,1.1c0.1,0.7,0.3,1.7,0.5,3c0.8,6.6,0.7,13.2-0.5,19.7
		c-0.2,1.2-0.4,2.2-0.6,2.9c-0.1,0.3-0.2,0.7-0.3,1c-0.1,0,0.2-1.6,0.6-4c0.9-6.5,1.1-13.1,0.4-19.6
		C165.7,168,165.5,166.4,165.6,166.4z"/>
	<g class="st9">
		<path d="M148.2,148.9l-48,74c11.7,5.9,26.5,8.8,37.6,1.8c3.1,3.8,9.6,2.4,12.6-1.4s3.3-9.1,3.4-14
			C154,189.1,151.1,169,148.2,148.9z"/>
	</g>
	<path class="st5" d="M128.9,96.5c-5.2-0.8-10.5,1.4-14.3,4.9s-6.4,8.2-8.5,13.1c-4,9.4-6.3,19.3-8.7,29.3
		c-3.4,14.6-6.8,29.3-7.7,44.3s3.6,23.8,10,37.4l22.8-3.2V218l3.1,4.3l8.9-1.4c0,0,2.7-23.2,2.7-23.1s4.2,22.1,4.2,22.1l7.4-0.7
		c7.4-29.1-1-48.3,3.2-78.1c1-7.1,2.6-14.1,2.6-21.3s-1.9-14.6-6.8-19.8s-13.4-7.3-19.5-3.5"/>
	<path class="st6" d="M134.5,220.9c0-0.1-0.1-0.2-0.1-0.3c0-0.2-0.1-0.6-0.2-1l-0.7-3.8c-0.6-3.3-1.3-8.1-2-14.1
		c-0.9-7-1.3-14-1.2-21.1c0.1-4.2,0.4-8.3,0.9-12.4c0.6-4.4,1.5-8.8,2.7-13.1c2.5-8.8,6.1-16.9,7.8-24.6c0.9-3.6,1.3-7.4,1.4-11.1
		c0-3.3-0.5-6.5-1.5-9.6c-0.8-2.6-2.1-5-3.6-7.1c-1.2-1.6-2.6-3.1-4.2-4.3c-1-0.8-2.1-1.4-3.3-2l-0.9-0.4c-0.1,0-0.2-0.1-0.3-0.2
		l0.3,0.1l0.9,0.4c1.2,0.5,2.3,1.2,3.3,2c1.6,1.2,3.1,2.7,4.3,4.3c1.6,2.2,2.9,4.6,3.8,7.2c1,3.1,1.5,6.4,1.5,9.7
		c0,3.8-0.5,7.5-1.3,11.2c-1.7,7.8-5.2,15.9-7.7,24.6c-1.2,4.3-2.1,8.6-2.7,13.1c-0.5,4.1-0.9,8.2-1,12.4c-0.1,7,0.2,14,1,21
		c0.7,6,1.4,10.8,1.9,14.1c0.2,1.6,0.4,2.9,0.6,3.8c0.1,0.4,0.1,0.8,0.1,1C134.5,220.7,134.5,220.8,134.5,220.9z"/>
	<path class="st6" d="M102.4,205.8c0-0.1,0-0.2,0-0.3c0-0.2-0.1-0.5-0.1-0.8l-0.3-3.1c-0.1-0.7-0.1-1.4-0.2-2.3s-0.1-1.7-0.2-2.7
		c-0.1-1.9-0.3-4.2-0.3-6.6c0-1.2,0-2.5-0.1-3.9s0.1-2.7,0.1-4.2c0-2.9,0.2-6,0.4-9.2c0.5-7,1.5-14.1,2.8-21
		c1.4-6.9,3.1-13.8,5.2-20.5c1-3.1,2-6,3-8.7c0.5-1.3,1-2.7,1.5-3.9l1.5-3.6c0.9-2.3,1.9-4.3,2.7-6c0.4-0.9,0.8-1.7,1.2-2.5l1-2
		c0.6-1.2,1.1-2.1,1.5-2.8l0.4-0.7c0.1-0.2,0.1-0.3,0.2-0.2c0,0.1-0.1,0.2-0.1,0.3c-0.1,0.2-0.2,0.4-0.3,0.8
		c-0.3,0.7-0.8,1.6-1.4,2.8c-0.3,0.6-0.6,1.3-1,2s-0.7,1.6-1.1,2.5c-0.8,1.8-1.8,3.8-2.7,6.1c-0.5,1.1-0.9,2.3-1.5,3.6
		s-1,2.6-1.5,3.9c-1.1,2.7-2,5.6-3,8.7c-2.1,6.7-3.8,13.5-5.2,20.4c-1.3,6.9-2.2,13.9-2.8,20.9c-0.2,3.2-0.4,6.3-0.5,9.2
		c0,1.4-0.1,2.8-0.1,4.2s0,2.6,0,3.9c0,2.5,0.1,4.7,0.2,6.6c0,1,0.1,1.9,0.1,2.7s0.1,1.6,0.2,2.3c0.1,1.3,0.2,2.4,0.2,3.2
		c0,0.3,0,0.6,0,0.8C102.3,205.6,102.3,205.7,102.4,205.8z"/>
	<path class="st6" d="M115,223.4c0,0,0-0.1-0.1-0.3s-0.2-0.5-0.3-0.8c-0.2-0.8-0.6-1.8-1-3.2c-0.2-0.7-0.4-1.5-0.7-2.3
		s-0.4-1.8-0.7-2.8c-0.4-2-1.1-4.2-1.5-6.8c-0.2-1.3-0.5-2.6-0.7-4s-0.4-2.8-0.6-4.3s-0.5-3-0.6-4.7s-0.3-3.3-0.4-5
		c-0.5-7.4-0.4-14.8,0.2-22.2s1.7-14.7,3.3-21.9c0.4-1.7,0.8-3.3,1.1-4.9s0.8-3.1,1.2-4.5c0.8-2.9,1.6-5.6,2.4-8.1s1.6-4.6,2.3-6.6
		s1.3-3.6,1.9-4.9l1.2-3.1l0.3-0.8c0-0.1,0.1-0.2,0.1-0.3c0,0.1,0,0.2-0.1,0.3L122,113c-0.3,0.7-0.7,1.8-1.2,3.1s-1.2,3-1.8,4.9
		s-1.5,4.1-2.2,6.6c-0.7,2.5-1.6,5.1-2.3,8.1c-0.4,1.5-0.8,3-1.2,4.5l-1.1,4.9c-1.5,7.2-2.6,14.5-3.3,21.9
		c-0.6,7.4-0.6,14.7-0.2,22.1c0.1,1.7,0.3,3.3,0.4,4.9s0.4,3.1,0.6,4.6s0.3,2.9,0.6,4.3s0.5,2.7,0.7,4c0.4,2.5,1,4.8,1.4,6.8
		c0.2,1,0.4,1.9,0.7,2.8s0.4,1.6,0.6,2.3l0.9,3.2c0.1,0.4,0.2,0.6,0.2,0.8C115,223.1,115,223.3,115,223.4z"/>
	<path class="st6" d="M147.1,209.3c0-0.1-0.1-0.2-0.1-0.3c-0.1-0.2-0.2-0.5-0.4-0.9l-0.7-1.4c-0.2-0.6-0.5-1.2-0.8-2
		c-1.7-4.2-3-8.6-3.8-13c-2.1-10.5-1.8-21.3,0.7-31.7c0.9-4,2.2-8.1,3.5-12.2s2.5-8.2,3.4-12.2c0.9-3.8,1.4-7.7,1.6-11.7
		c0.1-3.6-0.2-7.1-1.1-10.6c-0.8-3-2-5.9-3.7-8.4c-2.4-3.8-5.9-6.8-10-8.7c-1.1-0.5-2.3-0.8-3.5-1.1l-0.9-0.2c-0.1,0-0.2,0-0.3-0.1
		c0.1,0,0.2,0,0.3,0l1,0.1c1.2,0.2,2.4,0.6,3.5,1c4.2,1.8,7.7,4.8,10.2,8.7c1.8,2.6,3.1,5.5,3.8,8.5c0.9,3.5,1.3,7.1,1.1,10.7
		c-0.1,4-0.7,7.9-1.6,11.8c-0.9,4-2.1,8.1-3.4,12.3s-2.5,8.2-3.5,12.2c-0.9,3.8-1.6,7.7-1.9,11.6c-0.9,11.2,0.7,22.4,4.7,32.9
		c0.3,0.7,0.6,1.4,0.8,2l0.6,1.4l0.4,0.9C147.1,209,147.1,209.1,147.1,209.3z"/>
</g>
<g id="freepik--Floor--inject-25">
	<path class="st5" d="M459.6,481.6c0,0.1-93.8,0.3-209.4,0.3s-209.4-0.1-209.4-0.3s93.8-0.3,209.4-0.3S459.6,481.5,459.6,481.6z"/>
</g>
<rect x="-3.3" y="-1.8" class="st11" width="507" height="504"/>
<g>
	<path d="M115.4,242v-34.1h13.4c2.6,0,4.8,0.5,6.6,1.5s3.2,2.3,4.2,4.1c1,1.7,1.4,3.7,1.4,6s-0.5,4.3-1.5,6s-2.4,3.1-4.2,4
		c-1.8,1-4.1,1.4-6.7,1.4H120v-5.8h7.4c1.4,0,2.5-0.2,3.4-0.7s1.6-1.2,2-2c0.4-0.9,0.7-1.8,0.7-3c0-1.1-0.2-2.1-0.7-3
		c-0.4-0.8-1.1-1.5-2-2s-2.1-0.7-3.5-0.7h-4.9V242H115.4z"/>
	<path d="M152.7,207.9V242h-7.1v-34.1H152.7z"/>
	<path d="M165.6,242.5c-1.6,0-3.1-0.3-4.4-0.9c-1.3-0.6-2.3-1.4-3-2.5s-1.1-2.5-1.1-4.2c0-1.4,0.3-2.6,0.8-3.6s1.2-1.7,2.1-2.3
		c0.9-0.6,1.9-1,3.1-1.3c1.1-0.3,2.4-0.5,3.6-0.6c1.5-0.2,2.7-0.3,3.6-0.4c0.9-0.1,1.6-0.3,2-0.6s0.6-0.7,0.6-1.2v-0.1
		c0-1.1-0.3-1.9-1-2.4c-0.7-0.6-1.6-0.9-2.8-0.9c-1.3,0-2.3,0.3-3,0.8c-0.8,0.6-1.3,1.3-1.5,2.1l-6.6-0.5c0.3-1.6,1-2.9,2-4
		s2.2-2,3.8-2.6c1.5-0.6,3.3-0.9,5.4-0.9c1.4,0,2.8,0.2,4.1,0.5s2.5,0.8,3.5,1.5s1.8,1.6,2.4,2.7c0.6,1.1,0.9,2.4,0.9,3.9v17h-6.8
		v-3.5h-0.2c-0.4,0.8-1,1.5-1.6,2.1c-0.7,0.6-1.5,1.1-2.5,1.4S166.9,242.5,165.6,242.5z M167.7,237.6c1,0,2-0.2,2.8-0.6
		s1.4-1,1.9-1.7s0.7-1.5,0.7-2.4v-2.7c-0.2,0.1-0.5,0.3-0.9,0.4c-0.4,0.1-0.8,0.2-1.3,0.3s-1,0.2-1.4,0.2c-0.5,0.1-0.9,0.1-1.3,0.2
		c-0.8,0.1-1.6,0.3-2.2,0.6c-0.6,0.3-1.1,0.6-1.4,1.1s-0.5,1-0.5,1.7c0,1,0.4,1.7,1.1,2.2C165.7,237.3,166.6,237.6,167.7,237.6z"/>
	<path d="M197.1,242.5c-2.6,0-4.9-0.6-6.7-1.7s-3.3-2.7-4.3-4.6c-1-2-1.5-4.3-1.5-6.9s0.5-4.9,1.5-6.9s2.5-3.5,4.3-4.6
		c1.9-1.1,4.1-1.7,6.7-1.7c2.2,0,4.2,0.4,5.9,1.2s3,1.9,4,3.4s1.5,3.2,1.6,5.2h-6.7c-0.2-1.3-0.7-2.3-1.5-3.1s-1.9-1.2-3.2-1.2
		c-1.1,0-2.1,0.3-2.9,0.9c-0.8,0.6-1.5,1.5-1.9,2.6c-0.5,1.1-0.7,2.5-0.7,4.1s0.2,3,0.7,4.2c0.4,1.1,1.1,2,1.9,2.6
		c0.8,0.6,1.8,0.9,2.9,0.9c0.8,0,1.5-0.2,2.2-0.5c0.6-0.3,1.2-0.8,1.6-1.5c0.4-0.6,0.7-1.4,0.8-2.3h6.7c-0.1,2-0.6,3.7-1.6,5.1
		s-2.3,2.6-3.9,3.5C201.3,242.1,199.3,242.5,197.1,242.5z"/>
	<path d="M224.7,242.5c-2.6,0-4.9-0.5-6.8-1.6c-1.9-1.1-3.3-2.6-4.4-4.6c-1-2-1.5-4.3-1.5-7c0-2.6,0.5-4.9,1.5-6.9s2.5-3.5,4.3-4.6
		c1.9-1.1,4-1.7,6.5-1.7c1.7,0,3.3,0.3,4.7,0.8c1.5,0.5,2.7,1.3,3.8,2.4c1.1,1.1,1.9,2.4,2.6,4.1c0.6,1.6,0.9,3.5,0.9,5.7v1.9h-21.6
		v-4.4h14.9c0-1-0.2-1.9-0.7-2.7c-0.4-0.8-1.1-1.4-1.8-1.9c-0.8-0.4-1.7-0.7-2.7-0.7c-1.1,0-2,0.2-2.9,0.7s-1.5,1.2-1.9,2
		c-0.5,0.8-0.7,1.7-0.7,2.8v4.2c0,1.3,0.2,2.4,0.7,3.3s1.1,1.6,2,2.1s1.9,0.7,3.1,0.7c0.8,0,1.5-0.1,2.2-0.3c0.7-0.2,1.2-0.6,1.7-1
		s0.8-1,1.1-1.6l6.6,0.4c-0.3,1.6-1,2.9-2,4.1s-2.3,2.1-4,2.7C228.7,242.2,226.8,242.5,224.7,242.5z"/>
	<path d="M248.1,227.2V242H241v-34.1h6.9v13h0.3c0.6-1.5,1.5-2.7,2.8-3.6c1.3-0.9,2.9-1.3,4.8-1.3c1.8,0,3.3,0.4,4.7,1.2
		c1.3,0.8,2.4,1.9,3.1,3.3c0.7,1.4,1.1,3.2,1.1,5.1V242h-7.1v-15c0-1.6-0.4-2.8-1.2-3.7c-0.8-0.9-1.9-1.3-3.4-1.3
		c-1,0-1.8,0.2-2.6,0.6c-0.7,0.4-1.3,1-1.7,1.8C248.4,225.2,248.1,226.1,248.1,227.2z"/>
	<path d="M281.8,242.5c-2.6,0-4.8-0.6-6.7-1.7s-3.3-2.6-4.4-4.6c-1-2-1.5-4.3-1.5-6.9s0.5-4.9,1.5-6.9s2.5-3.5,4.4-4.6
		s4.1-1.7,6.7-1.7s4.8,0.6,6.7,1.7s3.3,2.6,4.4,4.6c1,2,1.5,4.3,1.5,6.9c0,2.6-0.5,4.9-1.5,6.9s-2.5,3.5-4.4,4.6
		S284.4,242.5,281.8,242.5z M281.9,237c1.2,0,2.2-0.3,2.9-1c0.8-0.7,1.4-1.6,1.8-2.8c0.4-1.2,0.6-2.5,0.6-4s-0.2-2.8-0.6-4
		s-1-2.1-1.8-2.8s-1.8-1-2.9-1c-1.2,0-2.2,0.3-3,1s-1.4,1.6-1.8,2.8s-0.6,2.5-0.6,4s0.2,2.8,0.6,4s1,2.1,1.8,2.8
		C279.7,236.7,280.7,237,281.9,237z"/>
	<path d="M306.1,207.9V242H299v-34.1H306.1z"/>
	<path d="M321.2,242.4c-1.9,0-3.7-0.5-5.3-1.5s-2.8-2.5-3.7-4.4c-0.9-2-1.4-4.4-1.4-7.2c0-2.9,0.5-5.4,1.4-7.3
		c0.9-1.9,2.2-3.4,3.8-4.4c1.6-1,3.3-1.5,5.2-1.5c1.4,0,2.6,0.2,3.6,0.7s1.7,1.1,2.3,1.8c0.6,0.7,1,1.4,1.4,2.1h0.2v-12.8h7.1V242
		h-7v-4.1h-0.3c-0.3,0.7-0.8,1.4-1.4,2.1s-1.4,1.3-2.3,1.7C323.7,242.2,322.6,242.4,321.2,242.4z M323.4,236.8
		c1.1,0,2.1-0.3,2.9-0.9s1.4-1.5,1.8-2.6s0.6-2.5,0.6-4s-0.2-2.8-0.6-4c-0.4-1.1-1-2-1.8-2.6s-1.8-0.9-2.9-0.9
		c-1.2,0-2.1,0.3-2.9,0.9s-1.4,1.5-1.8,2.6s-0.6,2.4-0.6,3.9s0.2,2.8,0.6,3.9s1,2,1.8,2.7S322.3,236.8,323.4,236.8z"/>
	<path d="M353.2,242.5c-2.6,0-4.9-0.5-6.8-1.6s-3.3-2.6-4.4-4.6c-1-2-1.5-4.3-1.5-7c0-2.6,0.5-4.9,1.5-6.9s2.5-3.5,4.3-4.6
		c1.9-1.1,4-1.7,6.5-1.7c1.7,0,3.3,0.3,4.7,0.8c1.5,0.5,2.7,1.3,3.8,2.4c1.1,1.1,1.9,2.4,2.6,4.1c0.6,1.6,0.9,3.5,0.9,5.7v1.9h-21.5
		v-4.4h14.9c0-1-0.2-1.9-0.7-2.7c-0.4-0.8-1.1-1.4-1.8-1.9s-1.7-0.7-2.7-0.7c-1.1,0-2,0.2-2.9,0.7s-1.5,1.2-1.9,2
		c-0.5,0.8-0.7,1.7-0.7,2.8v4.2c0,1.3,0.2,2.4,0.7,3.3s1.1,1.6,2,2.1s1.9,0.7,3.1,0.7c0.8,0,1.5-0.1,2.2-0.3s1.2-0.6,1.7-1
		s0.8-1,1.1-1.6l6.6,0.4c-0.3,1.6-1,2.9-2,4.1s-2.3,2.1-4,2.7C357.2,242.2,355.3,242.5,353.2,242.5z"/>
	<path d="M369.5,242v-25.6h6.9v4.5h0.3c0.5-1.6,1.2-2.8,2.3-3.6c1.1-0.8,2.4-1.2,3.8-1.2c0.4,0,0.7,0,1.1,0.1s0.8,0.1,1.1,0.2v6.3
		c-0.3-0.1-0.8-0.2-1.4-0.3s-1.1-0.1-1.6-0.1c-1,0-2,0.2-2.8,0.7c-0.8,0.4-1.5,1.1-1.9,1.9s-0.7,1.7-0.7,2.8V242H369.5z"/>
</g>
<g>
	<path d="M182.6,291.9v-2.5l7.9-8.2c0.8-0.9,1.5-1.7,2.1-2.3s1-1.3,1.2-1.9c0.3-0.6,0.4-1.3,0.4-1.9c0-0.8-0.2-1.4-0.5-2
		s-0.9-1-1.5-1.3s-1.3-0.5-2.1-0.5c-0.8,0-1.6,0.2-2.2,0.5c-0.6,0.3-1.1,0.8-1.4,1.4s-0.5,1.4-0.5,2.2h-3.4c0-1.4,0.3-2.7,1-3.7
		s1.5-1.9,2.7-2.5s2.4-0.9,3.9-0.9c1.5,0,2.8,0.3,3.9,0.9c1.1,0.6,2,1.4,2.6,2.4s0.9,2.1,0.9,3.4c0,0.9-0.2,1.7-0.5,2.5
		c-0.3,0.8-0.9,1.7-1.7,2.8c-0.8,1-1.9,2.2-3.3,3.7l-4.6,4.8v0.2h10.5v3H182.6z"/>
	<path d="M210.3,292.3c-1.8,0-3.3-0.5-4.6-1.4c-1.3-0.9-2.2-2.3-2.9-4.1c-0.7-1.8-1-4-1-6.5c0-2.5,0.3-4.7,1-6.5
		c0.7-1.8,1.7-3.2,2.9-4.1s2.8-1.4,4.6-1.4c1.8,0,3.3,0.5,4.6,1.4c1.3,0.9,2.3,2.3,2.9,4.1s1,3.9,1,6.5c0,2.5-0.3,4.7-1,6.5
		c-0.7,1.8-1.7,3.2-2.9,4.1C213.7,291.8,212.1,292.3,210.3,292.3z M210.3,289.2c1.6,0,2.8-0.8,3.7-2.3c0.9-1.5,1.3-3.8,1.3-6.7
		c0-1.9-0.2-3.6-0.6-4.9c-0.4-1.3-1-2.4-1.7-3.1c-0.8-0.7-1.7-1-2.7-1c-1.6,0-2.8,0.8-3.7,2.3c-0.9,1.5-1.3,3.8-1.4,6.7
		c0,1.9,0.2,3.6,0.6,4.9c0.4,1.3,1,2.4,1.7,3C208.4,288.9,209.3,289.2,210.3,289.2z"/>
	<path d="M231,292.3c-1.8,0-3.3-0.5-4.6-1.4c-1.3-0.9-2.2-2.3-2.9-4.1c-0.7-1.8-1-4-1-6.5c0-2.5,0.3-4.7,1-6.5
		c0.7-1.8,1.7-3.2,2.9-4.1s2.8-1.4,4.6-1.4c1.8,0,3.3,0.5,4.6,1.4c1.3,0.9,2.3,2.3,2.9,4.1s1,3.9,1,6.5c0,2.5-0.3,4.7-1,6.5
		c-0.7,1.8-1.7,3.2-2.9,4.1C234.4,291.8,232.8,292.3,231,292.3z M231,289.2c1.6,0,2.8-0.8,3.7-2.3c0.9-1.5,1.3-3.8,1.3-6.7
		c0-1.9-0.2-3.6-0.6-4.9c-0.4-1.3-1-2.4-1.7-3.1c-0.8-0.7-1.7-1-2.7-1c-1.6,0-2.8,0.8-3.7,2.3c-0.9,1.5-1.3,3.8-1.4,6.7
		c0,1.9,0.2,3.6,0.6,4.9c0.4,1.3,1,2.4,1.7,3C229.1,288.9,230,289.2,231,289.2z"/>
	<path d="M246.4,274.4l3.9,6.8l3.9-6.8h3.7l-5.5,8.7l5.5,8.7h-3.7l-3.9-6.5l-3.9,6.5h-3.7l5.4-8.7l-5.4-8.7H246.4z"/>
	<path d="M261.3,291.9v-2.5l7.9-8.2c0.8-0.9,1.5-1.7,2.1-2.3c0.5-0.7,1-1.3,1.2-1.9c0.3-0.6,0.4-1.3,0.4-1.9c0-0.8-0.2-1.4-0.5-2
		s-0.9-1-1.5-1.3s-1.3-0.5-2.1-0.5c-0.8,0-1.6,0.2-2.2,0.5c-0.6,0.3-1.1,0.8-1.4,1.4s-0.5,1.4-0.5,2.2h-3.4c0-1.4,0.3-2.7,1-3.7
		c0.7-1.1,1.5-1.9,2.7-2.5c1.1-0.6,2.4-0.9,3.9-0.9c1.5,0,2.8,0.3,3.9,0.9c1.1,0.6,2,1.4,2.6,2.4c0.6,1,0.9,2.1,0.9,3.4
		c0,0.9-0.2,1.7-0.5,2.5c-0.3,0.8-0.9,1.7-1.7,2.8c-0.8,1-1.9,2.2-3.3,3.7l-4.6,4.8v0.2h10.5v3H261.3z"/>
	<path d="M289.1,292.3c-1.8,0-3.3-0.5-4.6-1.4c-1.3-0.9-2.3-2.3-2.9-4.1c-0.7-1.8-1-4-1-6.5c0-2.5,0.3-4.7,1-6.5
		c0.7-1.8,1.7-3.2,2.9-4.1c1.3-0.9,2.8-1.4,4.6-1.4c1.8,0,3.3,0.5,4.6,1.4c1.3,0.9,2.3,2.3,2.9,4.1c0.7,1.8,1,3.9,1,6.5
		c0,2.5-0.3,4.7-1,6.5c-0.7,1.8-1.7,3.2-2.9,4.1C292.4,291.8,290.9,292.3,289.1,292.3z M289.1,289.2c1.6,0,2.8-0.8,3.7-2.3
		c0.9-1.5,1.3-3.8,1.3-6.7c0-1.9-0.2-3.6-0.6-4.9c-0.4-1.3-1-2.4-1.7-3.1c-0.8-0.7-1.7-1-2.7-1c-1.6,0-2.8,0.8-3.7,2.3
		c-0.9,1.5-1.3,3.8-1.4,6.7c0,1.9,0.2,3.6,0.6,4.9c0.4,1.3,1,2.4,1.7,3C287.1,288.9,288,289.2,289.1,289.2z"/>
	<path d="M309.8,292.3c-1.8,0-3.3-0.5-4.6-1.4c-1.3-0.9-2.3-2.3-2.9-4.1c-0.7-1.8-1-4-1-6.5c0-2.5,0.3-4.7,1-6.5
		c0.7-1.8,1.7-3.2,2.9-4.1c1.3-0.9,2.8-1.4,4.6-1.4c1.8,0,3.3,0.5,4.6,1.4c1.3,0.9,2.3,2.3,2.9,4.1c0.7,1.8,1,3.9,1,6.5
		c0,2.5-0.3,4.7-1,6.5c-0.7,1.8-1.7,3.2-2.9,4.1C313.1,291.8,311.6,292.3,309.8,292.3z M309.8,289.2c1.6,0,2.8-0.8,3.7-2.3
		c0.9-1.5,1.3-3.8,1.3-6.7c0-1.9-0.2-3.6-0.6-4.9c-0.4-1.3-1-2.4-1.7-3.1c-0.8-0.7-1.7-1-2.7-1c-1.6,0-2.8,0.8-3.7,2.3
		c-0.9,1.5-1.3,3.8-1.4,6.7c0,1.9,0.2,3.6,0.6,4.9c0.4,1.3,1,2.4,1.7,3C307.8,288.9,308.7,289.2,309.8,289.2z"/>
</g>
</svg>
