<svg width="204" height="43" viewBox="0 0 204 43" fill="none" xmlns="http://www.w3.org/2000/svg">
<path d="M42.0732 30L37.6357 14H40.1748L43.292 26.3906H43.4404L46.6826 14H49.1982L52.4404 26.3984H52.5889L55.6982 14H58.2451L53.7998 30H51.3701L48.0029 18.0156H47.8779L44.5107 30H42.0732ZM62.6404 14V30H60.2263V14H62.6404ZM65.936 30V14H68.35V27.9219H75.6V30H65.936ZM78.1339 30V14H80.548V27.9219H87.798V30H78.1339ZM92.746 14V30H90.3319V14H92.746ZM97.3932 30H94.8307L100.588 14H103.378L109.135 30H106.573L102.049 16.9062H101.924L97.3932 30ZM97.8229 23.7344H106.135V25.7656H97.8229V23.7344ZM111.226 14H114.156L119.249 26.4375H119.437L124.531 14H127.46V30H125.163V18.4219H125.015L120.296 29.9766H118.39L113.671 18.4141H113.523V30H111.226V14ZM141.532 30H136.352V14H141.696C143.264 14 144.61 14.3203 145.735 14.9609C146.86 15.5964 147.722 16.5104 148.321 17.7031C148.925 18.8906 149.227 20.3151 149.227 21.9766C149.227 23.6432 148.923 25.0755 148.313 26.2734C147.709 27.4714 146.834 28.3932 145.688 29.0391C144.542 29.6797 143.157 30 141.532 30ZM138.766 27.8906H141.399C142.618 27.8906 143.631 27.6615 144.438 27.2031C145.246 26.7396 145.85 26.0703 146.251 25.1953C146.652 24.3151 146.852 23.2422 146.852 21.9766C146.852 20.7214 146.652 19.6562 146.251 18.7812C145.855 17.9062 145.264 17.2422 144.477 16.7891C143.691 16.3359 142.714 16.1094 141.548 16.1094H138.766V27.8906ZM152.009 30V14H162.041V16.0781H154.423V20.9531H161.517V23.0234H154.423V27.9219H162.134V30H152.009ZM177.959 14V30H175.74L167.608 18.2656H167.459V30H165.045V14H167.279L175.42 25.75H175.569V14H177.959ZM192.089 19.0547C191.938 18.5807 191.735 18.1562 191.479 17.7812C191.229 17.401 190.93 17.0781 190.581 16.8125C190.232 16.5417 189.834 16.3359 189.386 16.1953C188.943 16.0547 188.456 15.9844 187.925 15.9844C187.024 15.9844 186.211 16.2161 185.487 16.6797C184.763 17.1432 184.19 17.8229 183.768 18.7187C183.352 19.6094 183.143 20.7005 183.143 21.9922C183.143 23.2891 183.354 24.3854 183.776 25.2812C184.198 26.1771 184.776 26.8568 185.511 27.3203C186.245 27.7839 187.081 28.0156 188.018 28.0156C188.888 28.0156 189.646 27.8385 190.292 27.4844C190.943 27.1302 191.446 26.6302 191.8 25.9844C192.159 25.3333 192.339 24.5677 192.339 23.6875L192.964 23.8047H188.386V21.8125H194.675V23.6328C194.675 24.9766 194.388 26.1432 193.815 27.1328C193.248 28.1172 192.461 28.8776 191.456 29.4141C190.456 29.9505 189.31 30.2187 188.018 30.2187C186.571 30.2187 185.3 29.8854 184.206 29.2188C183.117 28.5521 182.268 27.6068 181.659 26.3828C181.05 25.1536 180.745 23.6953 180.745 22.0078C180.745 20.7318 180.922 19.5859 181.276 18.5703C181.63 17.5547 182.128 16.6927 182.768 15.9844C183.414 15.2708 184.172 14.7266 185.042 14.3516C185.917 13.9714 186.873 13.7812 187.909 13.7812C188.774 13.7812 189.578 13.9089 190.323 14.1641C191.073 14.4193 191.74 14.7812 192.323 15.25C192.912 15.7187 193.399 16.276 193.784 16.9219C194.17 17.5625 194.43 18.2734 194.565 19.0547H192.089Z" fill="#20293A"/>
<path d="M18.1458 17.8354L18.0608 16.4046C18.0617 15.3688 18.3696 14.3565 18.9456 13.4957C19.5216 12.6348 20.3399 11.964 21.297 11.568C22.2542 11.1721 23.3072 11.0687 24.323 11.271C25.3389 11.4733 26.272 11.9722 27.0044 12.7046C27.7368 13.437 28.2357 14.3701 28.438 15.386C28.6403 16.4018 28.5369 17.4548 28.141 18.412C27.745 19.3691 27.0742 20.1874 26.2134 20.7634C25.3525 21.3394 24.3402 21.6473 23.3044 21.6482L14.4049 21.0605" stroke="#6F87B7" stroke-width="2" stroke-linecap="round" stroke-linejoin="round"/>
<path d="M23.304 21.6482L14.4045 21.0604C13.3687 21.0613 12.3564 21.3692 11.4955 21.9453C10.6347 22.5213 9.96387 23.3396 9.5679 24.2967C9.17194 25.2538 9.06858 26.3068 9.27087 27.3227C9.47317 28.3385 9.97205 29.2716 10.7045 30.0041C11.4369 30.7365 12.37 31.2354 13.3858 31.4376C14.4017 31.6399 15.4547 31.5366 16.4118 31.1406C17.369 30.7446 18.1872 30.0739 18.7633 29.213C19.3393 28.3521 19.6472 27.3399 19.6481 26.3041L19.563 24.8733" stroke="#ABCEFF" stroke-width="2" stroke-linecap="round" stroke-linejoin="round"/>
<path d="M26.209 20.7587C25.3481 21.3347 24.3358 21.6426 23.3 21.6435L14.4005 21.0557" stroke="url(#paint0_linear_249_204)" stroke-width="2" stroke-linecap="round" stroke-linejoin="round"/>
<defs>
<linearGradient id="paint0_linear_249_204" x1="26.7046" y1="20.7039" x2="13.709" y2="20.7086" gradientUnits="userSpaceOnUse">
<stop stop-color="#6F87B7"/>
<stop offset="1" stop-color="#ABCEFF"/>
</linearGradient>
</defs>
</svg>
